<?xml version="1.0" encoding="utf-8"?>
<!-- Generator: Adobe Illustrator 26.1.0, SVG Export Plug-In . SVG Version: 6.00 Build 0)  -->
<svg version="1.1" xmlns="http://www.w3.org/2000/svg" xmlns:xlink="http://www.w3.org/1999/xlink" x="0px" y="0px"
	 viewBox="0 0 500 500" style="enable-background:new 0 0 500 500;" xml:space="preserve">
<style type="text/css">
	.st0{display:none;}
	.st1{display:inline;fill:#E2F1FF;}
	.st2{fill:#CBE6FF;}
	.st3{fill:#E2F1FF;}
	.st4{fill:#246D79;}
	.st5{fill:#249C9C;}
	.st6{fill:#4EB5B2;}
	.st7{fill:#165965;}
	.st8{fill:#0B4951;}
	.st9{fill:#1A5463;}
	.st10{fill:#060A0E;}
	.st11{fill:#FFFFFF;}
	.st12{fill:#D9D9D9;}
	.st13{fill:#FEAE1A;}
	.st14{fill:#868686;}
	.st15{fill:#FE811A;}
	.st16{fill:none;stroke:#FFFFFF;stroke-linecap:round;stroke-linejoin:round;stroke-miterlimit:10;}
	.st17{fill:#1D262D;}
	.st18{fill:#061122;}
	.st19{fill:#FE881A;}
	.st20{opacity:0.19;fill:#006BFF;}
	.st21{opacity:0.35;fill:#FFFFFF;}
	.st22{opacity:0.54;}
	.st23{fill:#EBE6FC;}
	.st24{fill:#248988;}
	.st25{display:inline;}
</style>
<g id="BACKGROUND" class="st0">
	<rect class="st1" width="500" height="500"/>
</g>
<g id="OBJECTS">
	<g>
		<path class="st2" d="M100.2,380c0,0-56.4-35.6-40.1-71.3c9.5-21,51-13.2,46.6-48.1c-5.7-45.8-51.2-76.7-25-115.9
			c27-40.4,94.6,7.8,160.5-34.9c42.6-27.6,118.4-43,145.9,0.8c26.3,41.9-26.2,88.4,11.9,119.7c38.1,31.3,81.7,78.5-14.6,134.1
			C289.1,420,212,377.1,212,377.1"/>
		<path class="st2" d="M130.2,115.5c2.7,7.9,35.6,7.4,52.6,4.4c17-2.9,18.6-9,8-16C180,96.8,125,100.3,130.2,115.5z"/>
		<path class="st2" d="M219.9,106.1c-7.5-5.2-22.5,9.4-8.5,9.4C225.3,115.5,225,109.7,219.9,106.1z"/>
		<path class="st3" d="M93.5,195.1c-10-1.6-0.6,27.7,13.6,23.9C121.4,215.2,101.8,196.5,93.5,195.1z"/>
		<path class="st3" d="M87.9,178.5c-5.7,2.1-3.8,14.5,4.7,11.8C101,187.7,93.5,176.5,87.9,178.5z"/>
		<g>
			<g>
				<g>
					<path class="st4" d="M130.7,306.9c2.6,2,3,5.3,3,5.3s-3.1-0.1-5.6-2.6c-0.7-0.7-0.8-1.9-0.1-2.6
						C128.8,306.2,129.9,306.3,130.7,306.9z"/>
					<path class="st4" d="M124.2,296.3c0.6-0.8,1.7-0.9,2.6-0.4c1.8,1,2.8,2.6,3.3,3.7c-0.8-2.5-1.7-5-2.7-7.4
						c-0.3-0.8,0.9-1.3,1.2-0.5c0.2,0.5,0.3,0.9,0.5,1.4c-0.1-0.8,0-1.7,0.4-2.7c0.3-0.6,0.9-1,1.6-0.8c0.7,0.2,1,0.9,0.8,1.6
						c-0.5,1.8-1.8,2.9-2.3,3.2c0.9,2.4,1.7,4.8,2.5,7.3c-0.2-1.2-0.2-2.8,0.5-4.5c0.4-0.9,1.4-1.5,2.3-1.2c1,0.3,1.4,1.3,1.2,2.3
						c-0.9,3-3.1,4.6-3.5,4.9c0.7,2.1,1.3,4.3,1.9,6.4c0.1,0.3,0.2,0.6,0.2,0.9c-0.2-1.5-0.2-3.4,0.7-5.4c0.5-1.2,1.7-1.9,2.9-1.5
						c1.2,0.4,1.8,1.7,1.5,2.9c-1.1,4-4.1,6-4.5,6.2c0.4,1.7,0.8,3.4,1.2,5c0.1-1,0.3-2.2,0.8-3.3c0.5-1.2,1.7-1.9,2.9-1.5
						c1.2,0.4,1.8,1.7,1.5,2.9c-1,3.6-3.5,5.5-4.3,6.1c0.4,2,0.8,4,1.1,6c0.1,0.7,0.2,1.5,0.4,2.2c0-0.9,0.2-2,0.9-3.1
						c0.4-0.7,1.2-1,2-0.7c0.7,0.4,1,1.2,0.7,2c-1,2.2-2.8,3.2-3.3,3.4c0.3,2.2,0.6,4.4,0.9,6.6c0.1,0.8-1.2,1-1.3,0.2
						c-0.3-2.7-0.7-5.4-1.1-8.1c-0.6,0.1-2.6,0.4-4.6-0.6c-0.7-0.4-1.1-1.2-0.7-1.9c0.3-0.7,1.2-1,1.9-0.7c1.7,0.6,2.8,1.9,3.3,2.7
						c-0.5-3.3-1.1-6.6-1.8-9.9c0-0.1,0-0.2-0.1-0.2c-0.3,0-3.2-0.2-5.5-2.6c-0.7-0.7-0.8-1.9-0.1-2.6c0.7-0.7,1.8-0.7,2.6-0.1
						c1.5,1.2,2.3,2.8,2.7,3.9c-1.2-5.5-2.7-11-4.4-16.4c-0.2-0.5-0.3-0.9-0.5-1.4c-0.4,0-3.2,0.1-5.8-1.9
						C123.8,298.3,123.6,297.2,124.2,296.3z"/>
				</g>
				<path class="st5" d="M110.8,325.9c-1,0.8-3.7,3-7.4,4.7c-4.6,2.1-8.8,2.7-8.8,2.7s3.2-2.9,7.8-5c3.5-1.6,6.8-2.3,8.2-2.6
					c-1.1-0.8-2.3-1.6-3.4-2.4c-0.5,0.4-2.9,2.5-6.3,4c-3.8,1.8-7.3,2.2-7.3,2.2s2.6-2.4,6.4-4.1c3.3-1.5,6.3-2.1,7.1-2.2
					c-1.5-1-3-2-4.5-2.9c-0.7,0.6-2.1,1.5-3.7,2.3c-2.6,1.2-4.9,1.5-4.9,1.5s1.8-1.6,4.3-2.8c1.5-0.7,2.9-1.1,3.8-1.3
					c-0.8-0.5-1.6-1-2.4-1.4c-0.6-0.4-0.6-1.3-0.3-1.8c0.5-0.6,1.2-0.6,1.8-0.3c1.8,1.1,3.7,2.2,5.4,3.4c-0.5-1.3-1.2-3.5-1.6-6.1
					c-0.6-4.1,0-7.6,0-7.6s1.5,3.2,2.1,7.3c0.4,2.9,0.2,5.5,0.1,6.8c1.5,1,3.1,2.1,4.6,3.2c-0.3-1.7-0.8-5.1-0.7-9
					c0.3-5.6,1.9-10.1,1.9-10.1s1.2,4.6,0.9,10.2c-0.2,4.2-1.1,7.7-1.6,9.2c0.9,0.7,1.9,1.4,2.8,2.1c0.1-2,0.3-5.7,1.4-9.7
					c1.6-6,4.4-10.4,4.4-10.4s0.2,5.2-1.4,11.2c-1.1,4.3-2.9,7.7-3.8,9.4c1,0.8,2,1.6,3,2.4c0.4-2,1.3-5.3,2.9-8.8
					c2.6-5.6,6-9.5,6-9.5s-0.7,5.2-3.2,10.8c-1.7,3.7-3.7,6.6-5,8.2c0.8,0.7,1.6,1.3,2.3,2c1.5-1.4,4-3.7,7.3-5.7
					c5.3-3.2,10.4-4.5,10.4-4.5s-3.5,3.9-8.7,7.2c-3.1,1.9-6.1,3.1-8.1,3.8c0.9,0.8,1.8,1.7,2.7,2.5c1.6-1,5-2.8,9.2-4.1
					c5.9-1.8,11.2-1.8,11.2-1.8s-4.3,3-10.2,4.8c-3.9,1.2-7.5,1.6-9.5,1.7c0.6,0.6,1.2,1.2,1.8,1.8c0.3,0.3,0.7,0.7,1,1.1
					c1.9-0.7,5.2-1.8,8.9-2.3c6.1-0.9,11.3,0,11.3,0s-4.7,2.2-10.9,3.1c-3.2,0.5-6.2,0.4-8.3,0.3c0.8,0.9,1.6,1.7,2.4,2.6
					c2-0.2,5.6-0.3,9.7,0.3c6.1,0.9,10.8,3.2,10.8,3.2s-5.2,0.8-11.3-0.1c-3.3-0.5-6.1-1.4-8.1-2.1c1.5,1.8,3,3.7,4.5,5.6
					c2,0.3,5.4,0.9,9.1,2.3c5.8,2.2,9.9,5.4,9.9,5.4s-5.2-0.3-11-2.5c-2.5-1-4.7-2.1-6.4-3.1c3.1,4.3,5.9,8.7,8.5,13.3
					c3.1,5.6,5.7,11.3,7.8,17.3c0.6,1.6-1.8,2.6-2.4,1c-3.8-10.5-9-20.4-15.5-29.4c-0.1-0.1-0.2-0.3-0.3-0.4c-0.1,1.6-0.4,4-1.1,6.6
					c-1.3,4.5-3.4,7.8-3.4,7.8s-0.1-4,1.2-8.4c0.8-3,2.1-5.4,2.8-6.7c-1.8-2.4-3.7-4.8-5.6-7.1c0,1.5-0.2,5-1.3,8.9
					c-1.4,5.1-3.9,8.9-3.9,8.9s-0.1-4.5,1.3-9.6c1.2-4.1,3-7.3,3.6-8.5c-1.1-1.3-2.2-2.5-3.4-3.8c-0.1,2-0.4,5.8-1.5,9.8
					c-1.7,6.1-4.6,10.5-4.6,10.5s-0.1-5.3,1.6-11.4c1.2-4.4,3.1-7.9,4-9.6c-1.1-1.1-2.2-2.3-3.3-3.4c-0.3,1.4-1.4,5.3-3.6,9.3
					c-2.7,5.1-6.3,8.5-6.3,8.5s0.9-4.8,3.7-9.9c2.2-4.1,4.9-7.1,5.9-8.2c-1-1-2.1-2-3.1-3c-0.2,0.7-1.8,5-4.8,9.3
					c-3.3,4.7-7.2,7.8-7.2,7.8s1.5-4.7,4.8-9.4c3-4.3,6.5-7.2,7.1-7.7c-1-0.9-2.1-1.9-3.2-2.8c-0.5,0.8-2.9,4.5-6.7,8
					c-4.3,3.9-8.8,5.9-8.8,5.9s2.5-4.2,6.8-8.1c3.8-3.4,7.8-5.5,8.6-5.9c-0.7-0.6-1.3-1.1-2-1.6c-0.4-0.4-0.9-0.7-1.4-1.1
					c-1,1.1-3.3,3.4-6.3,5.4c-4.2,2.8-8.4,3.9-8.4,3.9s2.7-3.3,7-6.1c2.9-1.9,5.8-3.1,7.3-3.6C112.5,327.2,111.6,326.5,110.8,325.9z
					"/>
				<g>
					<path class="st6" d="M92.4,404.1c3.2-2.4,7.2-1.7,7.2-1.7s-1.2,3.5-4.9,5.5c-1.1,0.6-2.4,0.3-3-0.8
						C91,406.1,91.4,404.8,92.4,404.1z"/>
					<path class="st6" d="M78,408c-0.8-1-0.5-2.3,0.4-3.1c1.8-1.7,4-2.3,5.4-2.5c-3.2,0.1-6.3,0.3-9.4,0.5c-1,0.1-1.2-1.4-0.2-1.5
						c0.6,0,1.2-0.1,1.8-0.1c-0.9-0.2-2-0.6-2.9-1.4c-0.6-0.5-0.8-1.4-0.4-2.1c0.5-0.7,1.4-0.8,2.1-0.4c1.9,1.2,2.7,3.1,2.9,3.7
						c3.1-0.2,6.2-0.3,9.3-0.4c-1.4-0.2-3.3-0.7-5-2.1c-0.9-0.8-1.2-2.1-0.5-3.1c0.7-1,2-1.2,3.1-0.5c3.2,2,4.2,5.1,4.4,5.7
						c2.7,0,5.4,0,8.1,0c0.4,0,0.8,0,1.1,0c-1.8-0.3-4-1-6-2.7c-1.2-1-1.6-2.6-0.7-3.9c0.9-1.3,2.6-1.5,3.9-0.7
						c4.2,2.7,5.5,6.8,5.6,7.3c2.1,0.1,4.2,0.2,6.2,0.3c-1.2-0.4-2.4-1.1-3.6-2c-1.2-1-1.6-2.6-0.7-3.9c0.9-1.3,2.6-1.5,3.9-0.7
						c3.7,2.4,5.2,5.9,5.5,7c2.4,0.2,4.8,0.5,7.3,0.8c0.9,0.1,1.8,0.2,2.7,0.4c-1-0.3-2.3-1-3.3-2.1c-0.6-0.7-0.7-1.8-0.1-2.5
						c0.7-0.7,1.7-0.7,2.5-0.1c2.2,1.9,2.7,4.3,2.8,4.9c2.7,0.4,5.3,0.8,8,1.3c1,0.2,0.8,1.7-0.2,1.5c-3.2-0.6-6.4-1.1-9.7-1.5
						c-0.1,0.8-0.4,3.1-2.2,5.1c-0.7,0.7-1.7,0.8-2.5,0.2c-0.7-0.6-0.7-1.7-0.2-2.5c1.3-1.8,3.2-2.6,4.2-2.9c-4-0.5-8-1-12.1-1.3
						c-0.1,0-0.2,0-0.3,0c-0.1,0.3-1.4,3.6-4.9,5.5c-1.1,0.6-2.4,0.3-3-0.8c-0.6-1.1-0.2-2.3,0.8-3c1.9-1.4,4-1.7,5.4-1.7
						c-6.8-0.5-13.6-0.7-20.4-0.5c-0.6,0-1.2,0-1.8,0.1c-0.1,0.4-1,3.8-4.2,6C80.1,409.1,78.8,409,78,408z"/>
				</g>
				<g>
					<g>
						<path class="st7" d="M146,396.2c0,0-12.1,0.7-21.4-13.4l5-3.7l-7.2,0.8l-5.1-6.8l7.3-0.7L115,370l8.6-3.9l-11,0.7
							c0,0-5.7-10-5.6-22.9c0,0,12.5-0.1,26,15.1l-2.1,6.6l3.7-4.4c0,0,9,11,12.2,20.2l-2.5,4.9l3.2-2.9
							C147.6,383.4,149.5,390.5,146,396.2z"/>
						<path class="st8" d="M138.8,371.2c-0.5,3.2-0.8,6.5-0.8,9.7c-1.3-2.1-2.6-4.3-3.9-6.4c0,0,0,0,0,0c-0.1-1-0.2-2.1-0.2-3.1
							c0-0.3,0-0.4,0-0.6c0-0.3,0-0.5,0.1-0.8c0.1-0.5,0.1-1.1,0.2-1.6c0.1-0.4-0.2-0.9-0.7-0.9c-0.4,0-0.9,0.3-1,0.7
							c-0.2,1.2-0.3,2.4-0.3,3.6c-3.6-5.3-7.3-10.4-11.4-15.3c-0.3-0.4-0.6-0.7-0.9-1.1c0-0.1,0-0.1,0-0.2c-0.1-0.7-0.1-1.3-0.1-2
							c0-0.2,0-0.3,0-0.5c0-0.1,0-0.3,0-0.4c0,0,0,0,0,0c0,0,0-0.1,0-0.1c0-0.1,0-0.2,0-0.3c0-0.2,0-0.3,0-0.5
							c0-0.4-0.2-0.9-0.7-0.9c-0.4,0-0.9,0.3-1,0.7c-0.1,0.7-0.1,1.4-0.1,2.1c-1.8-2.1-3.7-4.2-5.6-6.2c-0.7-0.8-2.1,0.3-1.4,1
							c3.8,4,7.3,8.2,10.8,12.5c-2.5-0.8-5.1-1.4-7.7-1.9c-0.4-0.1-0.9,0.3-1,0.7c-0.1,0.5,0.2,0.8,0.7,0.9c3.2,0.6,6.3,1.4,9.3,2.4
							c0.1,0,0.3,0.1,0.4,0c5,6.5,9.5,13.2,13.6,20.2c2.1,3.6,4.1,7.2,5.9,10.9c0.5,0.9,2,0.3,1.6-0.6c-1.6-3.2-3.4-6.4-5.2-9.6
							c0.1-0.1,0.1-0.3,0.1-0.5c-0.2-3.9,0.1-7.9,0.7-11.8C140.6,370.4,139,370.2,138.8,371.2z"/>
					</g>
					<path class="st4" d="M148.2,409.3c0,0-16.5,7.7-37.4-7l4.9-7.9l-9.6,5.2l-10.9-6.8l9.9-5l-14.7,2l9.9-10.2l-14.9,7.1
						c0,0-13.6-10.8-20.4-29c0,0,17.5-7.1,44.7,6.9l0.7,10.3l2.7-8.2c0,0,18.6,10.4,28.2,21.5l-0.7,8.2l2.8-5.9
						C143.2,390.5,149.9,399.3,148.2,409.3z"/>
					<path class="st9" d="M124.2,378.3c1,4.8,2.5,9.5,4.3,14.1c-3-2.3-6-4.6-9-6.7c0,0,0,0,0,0c-0.8-1.4-1.4-2.8-1.9-4.3
						c-0.1-0.4-0.2-0.5-0.3-0.9c-0.1-0.4-0.2-0.7-0.3-1.1c-0.2-0.8-0.4-1.6-0.6-2.4c-0.1-0.6-0.8-1.1-1.5-0.9
						c-0.6,0.2-1.1,0.9-1,1.5c0.4,1.8,0.9,3.5,1.5,5.2c-7.9-5.4-16-10.5-24.4-15.2c-0.6-0.4-1.3-0.7-1.9-1c0-0.1,0-0.2-0.1-0.2
						c-0.5-0.9-0.9-1.8-1.3-2.7c-0.1-0.2-0.2-0.5-0.3-0.7c-0.1-0.2-0.2-0.4-0.2-0.6c0,0,0,0,0-0.1c0-0.1,0-0.1-0.1-0.2
						c0-0.1-0.1-0.3-0.1-0.4c-0.1-0.3-0.2-0.5-0.2-0.8c-0.2-0.6-0.8-1.1-1.5-0.9c-0.6,0.2-1.1,0.9-1,1.5c0.3,1,0.6,2,1,3
						c-3.7-2-7.5-3.9-11.2-5.7c-1.4-0.7-2.8,1.5-1.4,2.2c7.5,3.6,14.8,7.5,22,11.6c-4,0.3-7.9,0.9-11.8,1.6c-0.7,0.1-1.1,0.9-1,1.5
						c0.1,0.7,0.8,1,1.5,0.9c4.8-0.9,9.5-1.5,14.3-1.8c0.2,0,0.4-0.1,0.6-0.2c10.5,6.3,20.6,13.2,30.3,20.8
						c4.9,3.8,9.7,7.8,14.3,11.9c1.2,1,3-0.7,1.8-1.8c-4.1-3.6-8.3-7.2-12.6-10.6c0-0.2,0-0.5-0.1-0.7c-2.4-5.4-4.3-11.1-5.5-16.9
						C126.3,376.1,123.9,376.7,124.2,378.3z"/>
				</g>
			</g>
			<g>
				<g>
					<path class="st4" d="M355.9,306.9c-2.6,2-3,5.3-3,5.3s3.1-0.1,5.6-2.6c0.7-0.7,0.8-1.9,0.1-2.6
						C357.8,306.2,356.7,306.3,355.9,306.9z"/>
					<path class="st4" d="M362.5,296.3c-0.6-0.8-1.7-0.9-2.6-0.4c-1.8,1-2.8,2.6-3.3,3.7c0.8-2.5,1.7-5,2.7-7.4
						c0.3-0.8-0.9-1.3-1.2-0.5c-0.2,0.5-0.3,0.9-0.5,1.4c0.1-0.8,0-1.7-0.4-2.7c-0.3-0.6-0.9-1-1.6-0.8c-0.7,0.2-1,0.9-0.8,1.6
						c0.5,1.8,1.8,2.9,2.3,3.2c-0.9,2.4-1.7,4.8-2.5,7.3c0.2-1.2,0.2-2.8-0.5-4.5c-0.4-0.9-1.4-1.5-2.3-1.2c-1,0.3-1.4,1.3-1.2,2.3
						c0.9,3,3.1,4.6,3.5,4.9c-0.7,2.1-1.3,4.3-1.9,6.4c-0.1,0.3-0.2,0.6-0.2,0.9c0.2-1.5,0.2-3.4-0.7-5.4c-0.5-1.2-1.7-1.9-2.9-1.5
						c-1.2,0.4-1.8,1.7-1.5,2.9c1.1,4,4.1,6,4.5,6.2c-0.4,1.7-0.8,3.4-1.2,5c-0.1-1-0.3-2.2-0.8-3.3c-0.5-1.2-1.7-1.9-2.9-1.5
						c-1.2,0.4-1.8,1.7-1.5,2.9c1,3.6,3.5,5.5,4.3,6.1c-0.4,2-0.8,4-1.1,6c-0.1,0.7-0.2,1.5-0.4,2.2c0-0.9-0.2-2-0.9-3.1
						c-0.4-0.7-1.2-1-2-0.7c-0.7,0.4-1,1.2-0.7,2c1,2.2,2.8,3.2,3.3,3.4c-0.3,2.2-0.6,4.4-0.9,6.6c-0.1,0.8,1.2,1,1.3,0.2
						c0.3-2.7,0.7-5.4,1.1-8.1c0.6,0.1,2.6,0.4,4.6-0.6c0.7-0.4,1.1-1.2,0.7-1.9c-0.3-0.7-1.2-1-1.9-0.7c-1.7,0.6-2.8,1.9-3.3,2.7
						c0.5-3.3,1.1-6.6,1.8-9.9c0-0.1,0-0.2,0.1-0.2c0.3,0,3.2-0.2,5.5-2.6c0.7-0.7,0.8-1.9,0.1-2.6c-0.7-0.7-1.8-0.7-2.6-0.1
						c-1.5,1.2-2.3,2.8-2.7,3.9c1.2-5.5,2.7-11,4.4-16.4c0.2-0.5,0.3-0.9,0.5-1.4c0.4,0,3.2,0.1,5.8-1.9
						C362.8,298.3,363.1,297.2,362.5,296.3z"/>
				</g>
				<path class="st5" d="M408.1,289.1c1.4,1.2,5.6,4.5,11.2,7.1c6.9,3.2,13.3,4,13.3,4s-4.8-4.3-11.7-7.5
					c-5.3-2.5-10.3-3.5-12.3-3.9c1.7-1.3,3.4-2.5,5.2-3.7c0.8,0.7,4.4,3.7,9.5,6.1c5.7,2.6,11,3.3,11,3.3s-4-3.6-9.7-6.2
					c-4.9-2.3-9.5-3.1-10.7-3.3c2.2-1.5,4.5-2.9,6.7-4.3c1.1,0.9,3.1,2.3,5.6,3.4c3.9,1.8,7.4,2.3,7.4,2.3s-2.7-2.4-6.5-4.2
					c-2.2-1-4.3-1.6-5.7-1.9c1.2-0.7,2.4-1.5,3.5-2.1c0.9-0.5,1-2,0.4-2.7c-0.7-0.9-1.8-0.9-2.7-0.4c-2.8,1.6-5.5,3.3-8.2,5.1
					c0.7-2,1.8-5.3,2.3-9.2c0.9-6.2,0-11.5,0-11.5s-2.3,4.8-3.1,11.1c-0.6,4.4-0.3,8.3-0.1,10.2c-2.3,1.5-4.6,3.1-6.9,4.8
					c0.5-2.6,1.3-7.7,1-13.5c-0.4-8.4-2.9-15.2-2.9-15.2s-1.8,6.9-1.4,15.4c0.3,6.3,1.7,11.6,2.4,13.9c-1.4,1-2.8,2.1-4.2,3.2
					c-0.1-3-0.5-8.5-2.1-14.6c-2.4-9-6.6-15.7-6.6-15.7s-0.3,7.9,2.1,16.9c1.7,6.4,4.4,11.6,5.7,14.1c-1.5,1.2-3,2.4-4.4,3.6
					c-0.6-3-1.9-8.1-4.3-13.3c-3.8-8.5-9.1-14.4-9.1-14.4s1,7.8,4.8,16.3c2.5,5.5,5.6,9.9,7.5,12.3c-1.2,1-2.4,2-3.5,3.1
					c-2.2-2.2-6.1-5.6-11-8.6c-7.9-4.9-15.6-6.8-15.6-6.8s5.2,5.9,13.1,10.8c4.7,2.9,9.2,4.7,12.2,5.8c-1.4,1.3-2.7,2.5-4,3.8
					c-2.5-1.5-7.5-4.2-13.8-6.2c-8.9-2.7-16.8-2.7-16.8-2.7s6.5,4.4,15.4,7.2c5.8,1.8,11.2,2.4,14.3,2.6c-0.9,0.9-1.9,1.8-2.8,2.7
					c-0.5,0.5-1,1.1-1.5,1.6c-2.9-1.1-7.8-2.7-13.4-3.4c-9.2-1.3-17,0-17,0s7.1,3.4,16.3,4.7c4.9,0.7,9.3,0.6,12.5,0.5
					c-1.2,1.3-2.4,2.6-3.6,4c-3-0.3-8.5-0.5-14.6,0.4c-9.2,1.4-16.3,4.8-16.3,4.8s7.8,1.2,17-0.2c4.9-0.7,9.2-2.1,12.2-3.1
					c-2.3,2.7-4.6,5.5-6.7,8.4c-3.1,0.4-8.2,1.4-13.6,3.5c-8.7,3.3-14.9,8.2-14.9,8.2s7.9-0.5,16.6-3.8c3.8-1.4,7.1-3.2,9.6-4.7
					c-4.7,6.4-8.9,13.1-12.7,20.1c-4.6,8.4-8.5,17.1-11.8,26.1c-0.9,2.4,2.7,3.9,3.6,1.5c5.7-15.8,13.5-30.7,23.3-44.3
					c0.2-0.2,0.3-0.4,0.5-0.6c0.2,2.4,0.6,6,1.7,9.9c1.9,6.8,5.2,11.7,5.2,11.7s0.2-6-1.8-12.7c-1.3-4.5-3.1-8.1-4.2-10.1
					c2.7-3.7,5.5-7.3,8.5-10.7c0,2.2,0.3,7.5,2,13.4c2.2,7.7,5.9,13.4,5.9,13.4s0.2-6.8-2-14.5c-1.7-6.2-4.5-11-5.5-12.7
					c1.7-1.9,3.3-3.8,5.1-5.7c0.1,3,0.6,8.7,2.3,14.8c2.6,9.1,7,15.9,7,15.9s0.2-8-2.4-17.2c-1.9-6.6-4.7-11.9-6.1-14.4
					c1.6-1.7,3.3-3.4,5-5.1c0.5,2.2,2.1,8,5.3,14c4.1,7.7,9.4,12.9,9.4,12.9s-1.4-7.3-5.5-15c-3.3-6.2-7.4-10.8-8.9-12.3
					c1.5-1.5,3.1-3,4.7-4.4c0.4,1.1,2.6,7.5,7.2,14c5,7.1,10.9,11.7,10.9,11.7s-2.3-7.1-7.3-14.2c-4.6-6.5-9.8-10.8-10.7-11.6
					c1.6-1.4,3.1-2.8,4.7-4.2c0.7,1.1,4.3,6.8,10.1,12c6.5,5.8,13.2,8.9,13.2,8.9s-3.8-6.4-10.3-12.2c-5.8-5.2-11.7-8.2-13-8.8
					c1-0.8,2-1.7,3-2.5c0.7-0.5,1.4-1.1,2.1-1.6c1.6,1.7,4.9,5.1,9.5,8.1c6.4,4.2,12.6,5.9,12.6,5.9s-4.1-5-10.5-9.1
					c-4.4-2.9-8.7-4.6-10.9-5.4C405.5,291,406.8,290,408.1,289.1z"/>
				<g>
					<path class="st6" d="M394.2,404.1c-3.2-2.4-7.2-1.7-7.2-1.7s1.2,3.5,4.9,5.5c1.1,0.6,2.4,0.3,3-0.8
						C395.6,406.1,395.2,404.8,394.2,404.1z"/>
					<path class="st6" d="M408.6,408c0.8-1,0.5-2.3-0.4-3.1c-1.8-1.7-4-2.3-5.4-2.5c3.2,0.1,6.3,0.3,9.4,0.5c1,0.1,1.2-1.4,0.2-1.5
						c-0.6,0-1.2-0.1-1.8-0.1c0.9-0.2,2-0.6,2.9-1.4c0.6-0.5,0.8-1.4,0.4-2.1c-0.5-0.7-1.4-0.8-2.1-0.4c-1.9,1.2-2.7,3.1-2.9,3.7
						c-3.1-0.2-6.2-0.3-9.3-0.4c1.4-0.2,3.3-0.7,5-2.1c0.9-0.8,1.2-2.1,0.5-3.1c-0.7-1-2-1.2-3.1-0.5c-3.2,2-4.2,5.1-4.4,5.7
						c-2.7,0-5.4,0-8.1,0c-0.4,0-0.8,0-1.1,0c1.8-0.3,4-1,6-2.7c1.2-1,1.6-2.6,0.7-3.9c-0.9-1.3-2.6-1.5-3.9-0.7
						c-4.2,2.7-5.5,6.8-5.6,7.3c-2.1,0.1-4.2,0.2-6.2,0.3c1.2-0.4,2.4-1.1,3.6-2c1.2-1,1.6-2.6,0.7-3.9c-0.9-1.3-2.6-1.5-3.9-0.7
						c-3.7,2.4-5.2,5.9-5.5,7c-2.4,0.2-4.8,0.5-7.3,0.8c-0.9,0.1-1.8,0.2-2.7,0.4c1-0.3,2.3-1,3.3-2.1c0.6-0.7,0.7-1.8,0.1-2.5
						c-0.7-0.7-1.7-0.7-2.5-0.1c-2.2,1.9-2.7,4.3-2.8,4.9c-2.7,0.4-5.3,0.8-8,1.3c-1,0.2-0.8,1.7,0.2,1.5c3.2-0.6,6.4-1.1,9.7-1.5
						c0.1,0.8,0.4,3.1,2.2,5.1c0.7,0.7,1.7,0.8,2.5,0.2c0.7-0.6,0.7-1.7,0.2-2.5c-1.3-1.8-3.2-2.6-4.2-2.9c4-0.5,8-1,12.1-1.3
						c0.1,0,0.2,0,0.3,0c0.1,0.3,1.4,3.6,4.9,5.5c1.1,0.6,2.4,0.3,3-0.8c0.6-1.1,0.2-2.3-0.8-3c-1.9-1.4-4-1.7-5.4-1.7
						c6.8-0.5,13.6-0.7,20.4-0.5c0.6,0,1.2,0,1.8,0.1c0.1,0.4,1,3.8,4.2,6C406.5,409.1,407.9,409,408.6,408z"/>
				</g>
				<g>
					<g>
						<path class="st7" d="M340.6,396.2c0,0,12.1,0.7,21.4-13.4l-5-3.7l7.2,0.8l5.1-6.8l-7.3-0.7l9.6-2.4l-8.6-3.9l11,0.7
							c0,0,5.7-10,5.6-22.9c0,0-12.5-0.1-26,15.1l2.1,6.6l-3.7-4.4c0,0-9,11-12.2,20.2l2.5,4.9l-3.2-2.9
							C339.1,383.4,337.1,390.5,340.6,396.2z"/>
						<path class="st8" d="M347.8,371.2c0.5,3.2,0.8,6.5,0.8,9.7c1.3-2.1,2.6-4.3,3.9-6.4c0,0,0,0,0,0c0.1-1,0.2-2.1,0.2-3.1
							c0-0.3,0-0.4,0-0.6c0-0.3,0-0.5-0.1-0.8c-0.1-0.5-0.1-1.1-0.2-1.6c-0.1-0.4,0.2-0.9,0.7-0.9c0.4,0,0.9,0.3,1,0.7
							c0.2,1.2,0.3,2.4,0.3,3.6c3.6-5.3,7.3-10.4,11.4-15.3c0.3-0.4,0.6-0.7,0.9-1.1c0-0.1,0-0.1,0-0.2c0.1-0.7,0.1-1.3,0.1-2
							c0-0.2,0-0.3,0-0.5c0-0.1,0-0.3,0-0.4c0,0,0,0,0,0c0,0,0-0.1,0-0.1c0-0.1,0-0.2,0-0.3c0-0.2,0-0.3,0-0.5
							c0-0.4,0.2-0.9,0.7-0.9c0.4,0,0.9,0.3,1,0.7c0.1,0.7,0.1,1.4,0.1,2.1c1.8-2.1,3.7-4.2,5.6-6.2c0.7-0.8,2.1,0.3,1.4,1
							c-3.8,4-7.3,8.2-10.8,12.5c2.5-0.8,5.1-1.4,7.7-1.9c0.4-0.1,0.9,0.3,1,0.7c0.1,0.5-0.2,0.8-0.7,0.9c-3.2,0.6-6.3,1.4-9.3,2.4
							c-0.1,0-0.3,0.1-0.4,0c-5,6.5-9.5,13.2-13.6,20.2c-2.1,3.6-4.1,7.2-5.9,10.9c-0.5,0.9-2,0.3-1.6-0.6c1.6-3.2,3.4-6.4,5.2-9.6
							c-0.1-0.1-0.1-0.3-0.1-0.5c0.2-3.9-0.1-7.9-0.7-11.8C346,370.4,347.7,370.2,347.8,371.2z"/>
					</g>
					<path class="st4" d="M338.4,409.3c0,0,16.5,7.7,37.4-7l-4.9-7.9l9.6,5.2l10.9-6.8l-9.9-5l14.7,2l-9.9-10.2l14.9,7.1
						c0,0,13.6-10.8,20.4-29c0,0-17.5-7.1-44.7,6.9l-0.7,10.3l-2.7-8.2c0,0-18.6,10.4-28.2,21.5l0.7,8.2l-2.8-5.9
						C343.4,390.5,336.7,399.3,338.4,409.3z"/>
					<path class="st9" d="M362.4,378.3c-1,4.8-2.5,9.5-4.3,14.1c3-2.3,6-4.6,9-6.7c0,0,0,0,0,0c0.8-1.4,1.4-2.8,1.9-4.3
						c0.1-0.4,0.2-0.5,0.3-0.9c0.1-0.4,0.2-0.7,0.3-1.1c0.2-0.8,0.4-1.6,0.6-2.4c0.1-0.6,0.8-1.1,1.5-0.9c0.6,0.2,1.1,0.9,1,1.5
						c-0.4,1.8-0.9,3.5-1.5,5.2c7.9-5.4,16-10.5,24.4-15.2c0.6-0.4,1.3-0.7,1.9-1c0-0.1,0-0.2,0.1-0.2c0.5-0.9,0.9-1.8,1.3-2.7
						c0.1-0.2,0.2-0.5,0.3-0.7c0.1-0.2,0.2-0.4,0.2-0.6c0,0,0,0,0-0.1c0-0.1,0-0.1,0.1-0.2c0-0.1,0.1-0.3,0.1-0.4
						c0.1-0.3,0.2-0.5,0.2-0.8c0.2-0.6,0.8-1.1,1.5-0.9c0.6,0.2,1.1,0.9,1,1.5c-0.3,1-0.6,2-1,3c3.7-2,7.5-3.9,11.2-5.7
						c1.4-0.7,2.8,1.5,1.4,2.2c-7.5,3.6-14.8,7.5-22,11.6c4,0.3,7.9,0.9,11.8,1.6c0.7,0.1,1.1,0.9,1,1.5c-0.1,0.7-0.8,1-1.5,0.9
						c-4.8-0.9-9.5-1.5-14.3-1.8c-0.2,0-0.4-0.1-0.6-0.2c-10.5,6.3-20.6,13.2-30.3,20.8c-4.9,3.8-9.7,7.8-14.3,11.9
						c-1.2,1-3-0.7-1.8-1.8c4.1-3.6,8.3-7.2,12.6-10.6c0-0.2,0-0.5,0.1-0.7c2.4-5.4,4.3-11.1,5.5-16.9
						C360.3,376.1,362.7,376.7,362.4,378.3z"/>
				</g>
			</g>
			<g>
				<path class="st10" d="M242.8,271.1l1.3-9.6c0.7-5.1-2.6-9.3-7.3-9.3h-76.9l-2.5,18.9l-1.5,11.7l-14.5,109.4
					c-1.6,11.9,6,21.6,17,21.6h168c10.9,0,21.1-9.7,22.7-21.6l16-121.1H242.8z"/>
				<g>
					<path class="st11" d="M303.7,295c-35.5-21-71-41.9-106.5-62.9c50.8-27.7,25-100.6,75.8-128.3c35.5,21,71,41.9,106.5,62.9
						C328.7,194.4,354.5,267.4,303.7,295z"/>
					<g>
						<path class="st12" d="M280.3,209.4c-13.7-8.1-27.4-16.2-41.1-24.3c6.9-25.2,10.4-52.3,30.6-69.6c13.7,8.1,27.4,16.2,41.1,24.3
							C290.7,157.1,287.2,184.2,280.3,209.4z"/>
					</g>
					<g>
						<path class="st13" d="M357.5,174.1c-14.5-8.6-29-17.2-43.6-25.7c1.4-1.5,2.8-2.9,4.4-4.2c14.5,8.6,29,17.2,43.6,25.7
							C360.4,171.3,358.9,172.7,357.5,174.1z"/>
					</g>
					<path class="st14" d="M332.4,169.1c-7.9-4.7-15.9-9.4-23.8-14.1c0.7-1,1.5-2,2.3-3c7.9,4.7,15.9,9.4,23.8,14.1
						C333.9,167,333.1,168,332.4,169.1z"/>
					<path class="st14" d="M261.2,205.3c-7.9-4.7-15.9-9.4-23.8-14.1c0.4-1.2,0.7-2.5,1.1-3.7c7.9,4.7,15.9,9.4,23.8,14.1
						C261.9,202.9,261.6,204.1,261.2,205.3z"/>
					<path class="st12" d="M277.4,219c-13.7-8.1-27.4-16.2-41.1-24.3c0.2-0.6,0.4-1.2,0.6-1.8c13.7,8.1,27.4,16.2,41.1,24.3
						C277.8,217.8,277.6,218.4,277.4,219z"/>
					<path class="st12" d="M276.3,222.4c-13.7-8.1-27.4-16.2-41.1-24.3c0.2-0.6,0.4-1.2,0.6-1.8c13.7,8.1,27.4,16.2,41.1,24.3
						C276.7,221.2,276.5,221.8,276.3,222.4z"/>
					<path class="st12" d="M348.3,186.9c-14.5-8.6-29-17.2-43.6-25.7c0.2-0.4,0.4-0.8,0.7-1.1c14.5,8.6,29,17.2,43.6,25.7
						C348.7,186.2,348.5,186.5,348.3,186.9z"/>
					<path class="st12" d="M345.1,193.1c-14.5-8.6-29-17.2-43.6-25.7c0.2-0.4,0.4-0.8,0.6-1.2c14.5,8.6,29,17.2,43.6,25.7
						C345.5,192.3,345.3,192.7,345.1,193.1z"/>
					<path class="st12" d="M342.5,199.6c-14.5-8.6-29-17.2-43.6-25.7c0.2-0.4,0.3-0.8,0.5-1.2c14.5,8.6,29,17.2,43.6,25.7
						C342.8,198.8,342.6,199.2,342.5,199.6z"/>
					<path class="st12" d="M340.2,206.3c-14.5-8.6-29-17.2-43.6-25.7c0.1-0.4,0.3-0.9,0.4-1.3c14.5,8.6,29,17.2,43.6,25.7
						C340.4,205.5,340.3,205.9,340.2,206.3z"/>
					<path class="st12" d="M338.1,213.2c-14.5-8.6-29-17.2-43.6-25.7c0.1-0.4,0.2-0.9,0.4-1.3c14.5,8.6,29,17.2,43.6,25.7
						C338.4,212.3,338.3,212.8,338.1,213.2z"/>
					<path class="st12" d="M336.3,220.2c-14.5-8.6-29-17.2-43.6-25.7c0.1-0.4,0.2-0.9,0.3-1.3c14.5,8.6,29,17.2,43.6,25.7
						C336.5,219.3,336.4,219.7,336.3,220.2z"/>
					<path class="st12" d="M334.5,227.2c-14.5-8.6-29-17.2-43.6-25.7c0.1-0.4,0.2-0.9,0.3-1.3c14.5,8.6,29,17.2,43.6,25.7
						C334.7,226.3,334.6,226.8,334.5,227.2z"/>
					<path class="st12" d="M332.8,234.2c-14.5-8.6-29-17.2-43.6-25.7c0.1-0.4,0.2-0.9,0.3-1.3c14.5,8.6,29,17.2,43.6,25.7
						C333,233.4,332.9,233.8,332.8,234.2z"/>
					<path class="st12" d="M330.9,241.2c-14.5-8.6-29-17.2-43.6-25.7c0.1-0.4,0.2-0.9,0.4-1.3c14.5,8.6,29,17.2,43.6,25.7
						C331.1,240.3,331,240.8,330.9,241.2z"/>
					<path class="st12" d="M328.8,248.1c-14.5-8.6-29-17.2-43.6-25.7c0.1-0.4,0.3-0.9,0.4-1.3c14.5,8.6,29,17.2,43.6,25.7
						C329.1,247.2,329,247.6,328.8,248.1z"/>
					<path class="st12" d="M326.5,254.7c-14.5-8.6-29-17.2-43.6-25.7c0.2-0.4,0.3-0.8,0.5-1.2c14.5,8.6,29,17.2,43.6,25.7
						C326.8,253.9,326.7,254.3,326.5,254.7z"/>
					<path class="st12" d="M323.8,261.2c-14.5-8.6-29-17.2-43.6-25.7c0.2-0.4,0.4-0.8,0.5-1.2c14.5,8.6,29,17.2,43.6,25.7
						C324.2,260.4,324,260.8,323.8,261.2z"/>
				</g>
				<g>
					<polygon class="st12" points="153.6,320.2 303.3,320.2 319.1,153.8 169.4,153.8 					"/>
					<polygon class="st15" points="150.9,319.7 300.6,319.7 314,148.9 164.2,148.9 					"/>
					<polygon class="st13" points="148.1,314.2 300,314.2 311.2,143.3 178.7,143.3 					"/>
					<polygon class="st11" points="301.4,320 151.6,320 151.6,157.6 169.7,139.6 301.4,139.6 					"/>
					<rect x="162" y="153.8" class="st12" width="57.8" height="91.4"/>
					<line class="st16" x1="215.7" y1="157.3" x2="165.6" y2="241.1"/>
					<line class="st16" x1="165.6" y1="157.3" x2="215.7" y2="241.1"/>
					<rect x="230.3" y="153.8" class="st13" width="61.3" height="7.1"/>
					<rect x="230.3" y="166.5" class="st14" width="33.5" height="4.5"/>
					<rect x="162" y="248.2" class="st14" width="33.5" height="4.5"/>
					<rect x="162" y="254.7" class="st12" width="57.8" height="2.3"/>
					<rect x="162" y="259" class="st12" width="57.8" height="2.3"/>
					<rect x="230.3" y="178.3" class="st12" width="61.3" height="1.6"/>
					<rect x="230.3" y="186.7" class="st12" width="61.3" height="1.6"/>
					<rect x="230.3" y="195.1" class="st12" width="61.3" height="1.6"/>
					<rect x="230.3" y="203.5" class="st12" width="61.3" height="1.6"/>
					<rect x="230.3" y="211.9" class="st12" width="61.3" height="1.6"/>
					<rect x="230.3" y="220.3" class="st12" width="61.3" height="1.6"/>
					<rect x="230.3" y="228.8" class="st12" width="61.3" height="1.6"/>
					<rect x="230.3" y="237.2" class="st12" width="61.3" height="1.6"/>
					<rect x="230.3" y="245.6" class="st12" width="61.3" height="1.6"/>
					<rect x="230.3" y="254" class="st12" width="61.3" height="1.6"/>
					<rect x="230.3" y="262.4" class="st12" width="61.3" height="1.6"/>
					<rect x="230.3" y="270.8" class="st12" width="61.3" height="1.6"/>
				</g>
				<path class="st12" d="M301.3,282.6l-74.4-3.6v-6.5c0-5.5-4.5-10-10-10l-65.2-0.1v11.5l83.5,38.3"/>
				<path class="st17" d="M223.9,282.8V274c0-4.7-3.8-8.5-8.5-8.5h-76.9v17.4v10.7V394c0,10.9,8.9,19.8,19.8,19.8h168
					c10.9,0,19.8-8.9,19.8-19.8V282.8H223.9z"/>
				<rect x="152.1" y="351" class="st18" width="78.2" height="43.1"/>
				<rect x="159.4" y="357" class="st13" width="31.8" height="31.8"/>
				<rect x="197.4" y="357" class="st13" width="27.9" height="6.8"/>
				<rect x="197.4" y="366" class="st13" width="27.9" height="1.8"/>
				<rect x="197.4" y="370.1" class="st13" width="27.9" height="1.8"/>
				<rect x="197.4" y="376.6" class="st13" width="3.7" height="3.7"/>
				<rect x="204.7" y="376.6" class="st13" width="3.7" height="3.7"/>
				<rect x="212" y="376.6" class="st13" width="3.7" height="3.7"/>
				<rect x="221.6" y="385.1" class="st13" width="3.7" height="3.7"/>
			</g>
			<g>
				<path class="st19" d="M279.8,348.2c22,23,58.7,23.8,81.8,1.8c23-22,23.8-58.7,1.8-81.8c-22-23-58.7-23.8-81.8-1.8
					C258.6,288.5,257.8,325.2,279.8,348.2z M291.9,277.2c17.1-16.4,44.4-15.8,60.8,1.3c16.4,17.1,15.8,44.4-1.3,60.8
					c-17.1,16.4-44.4,15.8-60.8-1.3C274.1,320.8,274.7,293.6,291.9,277.2z"/>
				<circle class="st20" cx="321" cy="308.8" r="46"/>
				<circle class="st21" cx="328.4" cy="326.4" r="17.6"/>
				<circle class="st21" cx="350.7" cy="310.3" r="4.7"/>
				<path class="st21" d="M299.9,287.7c3.8-3.8,8.4-6.4,13.2-7.7l-4.6-8.4c-5.6,1.9-10.8,5-15.2,9.4c-15.3,15.3-15.3,40.2,0,55.5
					l6.6-6.6C288.2,318.3,288.2,299.4,299.9,287.7z"/>
				<path class="st13" d="M282.2,347.6c21.4,21.4,56.2,21.4,77.6,0c21.4-21.4,21.4-56.2,0-77.6c-21.4-21.4-56.2-21.4-77.6,0
					C260.8,291.5,260.8,326.2,282.2,347.6z M353.5,276.3c18,18,18,47.1,0,65c-18,18-47.1,18-65,0c-18-18-18-47.1,0-65
					C306.4,258.4,335.6,258.4,353.5,276.3z"/>
				<g class="st22">
					<path class="st11" d="M328.4,279.9c5,1.3,9.8,3.9,13.7,7.8l6.6-6.6c-5.8-5.8-12.9-9.4-20.3-10.8V279.9z"/>
				</g>
				<path class="st13" d="M424.3,205.5L424.3,205.5c5.2,5.2,5.2,13.7,0,19l-39.2,39.2l-19-19l39.2-39.2
					C410.6,200.3,419.1,200.3,424.3,205.5z"/>
				<path class="st17" d="M370.2,243.6l16.1,16.1c2.1,2.1,2.1,5.4,0,7.5l-10,10c-2.1,2.1-5.4,2.1-7.5,0l-16.1-16.1
					c-2.1-2.1-2.1-5.4,0-7.5l10-10C364.7,241.5,368.1,241.5,370.2,243.6z"/>
			</g>
			<polygon class="st12" points="151.6,157.6 169.7,139.6 166.9,160 			"/>
			<polygon class="st23" points="151.6,157.6 169.7,139.6 169.7,157.6 			"/>
			<path class="st17" d="M130.2,251.5h-9.7v-9.7c0-0.4-0.3-0.7-0.7-0.7c-0.4,0-0.7,0.3-0.7,0.7v9.7h-9.7c-0.4,0-0.7,0.3-0.7,0.7
				c0,0.4,0.3,0.7,0.7,0.7h9.7v9.7c0,0.4,0.3,0.7,0.7,0.7c0.4,0,0.7-0.3,0.7-0.7v-9.7h9.7c0.4,0,0.7-0.3,0.7-0.7
				C130.9,251.8,130.6,251.5,130.2,251.5z"/>
			<path class="st17" d="M370.3,223.6h-9.7v-9.7c0-0.4-0.3-0.7-0.7-0.7c-0.4,0-0.7,0.3-0.7,0.7v9.7h-9.7c-0.4,0-0.7,0.3-0.7,0.7
				c0,0.4,0.3,0.7,0.7,0.7h9.7v9.7c0,0.4,0.3,0.7,0.7,0.7c0.4,0,0.7-0.3,0.7-0.7v-9.7h9.7c0.4,0,0.7-0.3,0.7-0.7
				C371,224,370.7,223.6,370.3,223.6z"/>
			<path class="st13" d="M405,344.4h-7.6v-7.6c0-0.3-0.3-0.6-0.6-0.6c-0.3,0-0.6,0.2-0.6,0.6v7.6h-7.6c-0.3,0-0.6,0.2-0.6,0.6
				c0,0.3,0.2,0.6,0.6,0.6h7.6v7.6c0,0.3,0.2,0.6,0.6,0.6c0.3,0,0.6-0.2,0.6-0.6v-7.6h7.6c0.3,0,0.6-0.3,0.6-0.6
				C405.5,344.6,405.3,344.4,405,344.4z"/>
			<path class="st13" d="M168.6,308.1h-9.7v-9.7c0-0.4-0.3-0.7-0.7-0.7s-0.7,0.3-0.7,0.7v9.7h-9.7c-0.4,0-0.7,0.3-0.7,0.7
				c0,0.4,0.3,0.7,0.7,0.7h9.7v9.7c0,0.4,0.3,0.7,0.7,0.7s0.7-0.3,0.7-0.7v-9.7h9.7c0.4,0,0.7-0.3,0.7-0.7
				C169.3,308.4,168.9,308.1,168.6,308.1z"/>
			<path class="st13" d="M180.2,295.3h-4.6v-4.6c0-0.2-0.1-0.3-0.3-0.3c-0.2,0-0.3,0.1-0.3,0.3v4.6h-4.6c-0.2,0-0.3,0.1-0.3,0.3
				s0.1,0.3,0.3,0.3h4.6v4.6c0,0.2,0.1,0.3,0.3,0.3c0.2,0,0.3-0.1,0.3-0.3V296h4.6c0.2,0,0.3-0.1,0.3-0.3S180.4,295.3,180.2,295.3z"
				/>
			<path class="st17" d="M391,283.4h-5.2v-5.2c0-0.2-0.2-0.4-0.4-0.4s-0.4,0.2-0.4,0.4v5.2h-5.2c-0.2,0-0.4,0.2-0.4,0.4
				s0.2,0.4,0.4,0.4h5.2v5.2c0,0.2,0.2,0.4,0.4,0.4s0.4-0.2,0.4-0.4v-5.2h5.2c0.2,0,0.4-0.2,0.4-0.4S391.2,283.4,391,283.4z"/>
			<path class="st17" d="M402.9,270.1h-2.8v-2.8c0-0.1-0.1-0.2-0.2-0.2c-0.1,0-0.2,0.1-0.2,0.2v2.8H397c-0.1,0-0.2,0.1-0.2,0.2
				c0,0.1,0.1,0.2,0.2,0.2h2.8v2.8c0,0.1,0.1,0.2,0.2,0.2c0.1,0,0.2-0.1,0.2-0.2v-2.8h2.8c0.1,0,0.2-0.1,0.2-0.2
				C403.1,270.2,403.1,270.1,402.9,270.1z"/>
			<path class="st17" d="M139.7,220.7h-6.3v-6.3c0-0.3-0.2-0.5-0.5-0.5s-0.5,0.2-0.5,0.5v6.3h-6.3c-0.3,0-0.5,0.2-0.5,0.5
				s0.2,0.5,0.5,0.5h6.3v6.3c0,0.3,0.2,0.5,0.5,0.5s0.5-0.2,0.5-0.5v-6.3h6.3c0.3,0,0.5-0.2,0.5-0.5S140,220.7,139.7,220.7z"/>
			<path class="st17" d="M131.9,276.2h-5.5v-5.5c0-0.2-0.2-0.4-0.4-0.4c-0.2,0-0.4,0.2-0.4,0.4v5.5h-5.5c-0.2,0-0.4,0.2-0.4,0.4
				c0,0.2,0.2,0.4,0.4,0.4h5.5v5.5c0,0.2,0.2,0.4,0.4,0.4c0.2,0,0.4-0.2,0.4-0.4V277h5.5c0.2,0,0.4-0.2,0.4-0.4
				C132.3,276.4,132.2,276.2,131.9,276.2z"/>
			<path class="st17" d="M105.8,291.9h-2.9V289c0-0.1-0.1-0.2-0.2-0.2c-0.1,0-0.2,0.1-0.2,0.2v2.9h-2.9c-0.1,0-0.2,0.1-0.2,0.2
				c0,0.1,0.1,0.2,0.2,0.2h2.9v2.9c0,0.1,0.1,0.2,0.2,0.2c0.1,0,0.2-0.1,0.2-0.2v-2.9h2.9c0.1,0,0.2-0.1,0.2-0.2
				C106,292,105.9,291.9,105.8,291.9z"/>
			<path class="st17" d="M370.1,144h-2.9v-2.9c0-0.1-0.1-0.2-0.2-0.2c-0.1,0-0.2,0.1-0.2,0.2v2.9h-2.9c-0.1,0-0.2,0.1-0.2,0.2
				c0,0.1,0.1,0.2,0.2,0.2h2.9v2.9c0,0.1,0.1,0.2,0.2,0.2c0.1,0,0.2-0.1,0.2-0.2v-2.9h2.9c0.1,0,0.2-0.1,0.2-0.2
				C370.3,144.1,370.2,144,370.1,144z"/>
			<path class="st17" d="M355.4,128.4h-7.1v-7.1c0-0.3-0.2-0.5-0.5-0.5c-0.3,0-0.5,0.2-0.5,0.5v7.1h-7.1c-0.3,0-0.5,0.2-0.5,0.5
				c0,0.3,0.2,0.5,0.5,0.5h7.1v7.1c0,0.3,0.2,0.5,0.5,0.5c0.3,0,0.5-0.2,0.5-0.5v-7.1h7.1c0.3,0,0.5-0.2,0.5-0.5
				C356,128.6,355.7,128.4,355.4,128.4z"/>
			<path class="st17" d="M244,129.5h-7.1v-7.1c0-0.3-0.2-0.5-0.5-0.5c-0.3,0-0.5,0.2-0.5,0.5v7.1h-7.1c-0.3,0-0.5,0.2-0.5,0.5
				c0,0.3,0.2,0.5,0.5,0.5h7.1v7.1c0,0.3,0.2,0.5,0.5,0.5c0.3,0,0.5-0.2,0.5-0.5v-7.1h7.1c0.3,0,0.5-0.2,0.5-0.5
				C244.5,129.8,244.3,129.5,244,129.5z"/>
			<path class="st17" d="M224.1,133.1h-3.8v-3.8c0-0.2-0.1-0.3-0.3-0.3c-0.2,0-0.3,0.1-0.3,0.3v3.8h-3.8c-0.2,0-0.3,0.1-0.3,0.3
				c0,0.2,0.1,0.3,0.3,0.3h3.8v3.8c0,0.2,0.1,0.3,0.3,0.3c0.2,0,0.3-0.1,0.3-0.3v-3.8h3.8c0.2,0,0.3-0.1,0.3-0.3
				C224.3,133.2,224.2,133.1,224.1,133.1z"/>
			<g>
				<path class="st4" d="M302.6,419.3c0,0,9-0.3,13.6-10.8l-4.3-2.2l5.4,0.1l2.7-5.1l-5.5,0l6.7-2.3l-6.9-2.1l8.2-0.3
					c0,0,2.6-7.3,0.4-16.3c0,0-9.3,0.8-16.7,12.3l2.6,4.4l-3.4-2.8c0,0-4.9,8.2-5.7,14.8l2.6,3.2l-2.8-1.8
					C299.5,410.5,299.2,415.6,302.6,419.3z"/>
				<path class="st9" d="M304,401.5c0.9,2.2,1.6,4.4,2.1,6.7c0.6-1.6,1.2-3.1,1.9-4.7c0,0,0,0,0,0c-0.1-0.7-0.2-1.4-0.4-2.2
					c0-0.2-0.1-0.3-0.1-0.4c-0.1-0.2-0.1-0.3-0.2-0.5c-0.1-0.4-0.3-0.7-0.4-1.1c-0.1-0.3,0-0.6,0.4-0.7c0.3-0.1,0.7,0.1,0.8,0.4
					c0.3,0.8,0.6,1.6,0.8,2.5c1.8-3.9,3.7-7.7,5.9-11.4c0.2-0.3,0.3-0.6,0.5-0.8c0,0,0-0.1,0-0.1c0-0.5-0.1-0.9-0.2-1.4
					c0-0.1-0.1-0.2-0.1-0.3c0-0.1,0-0.2-0.1-0.3c0,0,0,0,0,0c0,0,0-0.1,0-0.1c0-0.1,0-0.1-0.1-0.2c0-0.1-0.1-0.2-0.1-0.4
					c-0.1-0.3,0-0.6,0.4-0.7c0.3-0.1,0.7,0.1,0.8,0.4c0.2,0.5,0.3,1,0.4,1.5c1-1.6,2-3.2,3.1-4.7c0.4-0.6,1.6,0,1.2,0.6
					c-2.1,3.1-4.1,6.2-5.9,9.5c1.7-0.7,3.5-1.3,5.4-1.8c0.3-0.1,0.7,0.1,0.8,0.4c0.1,0.3,0,0.6-0.4,0.7c-2.2,0.6-4.4,1.4-6.5,2.3
					c-0.1,0-0.2,0.1-0.3,0.1c-2.6,4.8-4.9,9.8-6.8,15c-1,2.6-1.8,5.3-2.6,7.9c-0.2,0.7-1.5,0.3-1.3-0.3c0.7-2.4,1.5-4.7,2.3-7
					c-0.1-0.1-0.1-0.2-0.2-0.3c-0.5-2.7-1.3-5.5-2.4-8.1C302.5,401,303.7,400.7,304,401.5z"/>
				<path class="st24" d="M303.6,419.5c0,0,6.1,4,14-0.8l-1.8-3.5l3.6,2.6l4.1-2.1l-3.7-2.5l5.5,1.6l-3.6-4.6l5.5,3.6
					c0,0,5.1-3.6,7.9-10.6c0,0-6.5-3.8-16.8,0.4l-0.4,4.1l-0.9-3.4c0,0-7.1,3.2-10.7,7.2l0.2,3.3l-1-2.5
					C305.6,412.2,303,415.4,303.6,419.5z"/>
				<path class="st9" d="M312.8,408.3c-0.4,1.9-1,3.7-1.7,5.4c1.1-0.8,2.3-1.5,3.4-2.2c0,0,0,0,0,0c0.3-0.5,0.5-1,0.8-1.6
					c0.1-0.2,0.1-0.2,0.1-0.3c0-0.1,0.1-0.3,0.1-0.4c0.1-0.3,0.2-0.6,0.2-0.9c0.1-0.3,0.3-0.4,0.6-0.3c0.2,0.1,0.4,0.4,0.3,0.7
					c-0.1,0.7-0.4,1.4-0.6,2c3-1.8,6.1-3.4,9.2-4.8c0.2-0.1,0.5-0.2,0.7-0.3c0,0,0-0.1,0-0.1c0.2-0.3,0.4-0.7,0.5-1
					c0-0.1,0.1-0.2,0.1-0.3c0-0.1,0.1-0.1,0.1-0.2c0,0,0,0,0,0c0,0,0,0,0-0.1c0-0.1,0-0.1,0.1-0.2c0-0.1,0.1-0.2,0.1-0.3
					c0.1-0.2,0.3-0.4,0.6-0.3c0.2,0.1,0.4,0.4,0.3,0.7c-0.1,0.4-0.3,0.8-0.4,1.2c1.4-0.6,2.8-1.2,4.2-1.7c0.5-0.2,1,0.8,0.5,0.9
					c-2.8,1-5.6,2.2-8.3,3.5c1.5,0.3,3,0.8,4.4,1.3c0.2,0.1,0.4,0.4,0.3,0.7c-0.1,0.3-0.3,0.4-0.6,0.3c-1.8-0.6-3.6-1.1-5.4-1.5
					c-0.1,0-0.2-0.1-0.2-0.1c-4,2-7.8,4.2-11.5,6.7c-1.9,1.3-3.7,2.6-5.4,4c-0.4,0.4-1.1-0.5-0.7-0.8c1.6-1.2,3.1-2.4,4.8-3.6
					c0-0.1,0-0.2,0-0.3c0.9-2,1.7-4.2,2.2-6.5C312,407.3,312.9,407.7,312.8,408.3z"/>
			</g>
			<g>
				<path class="st4" d="M179,416.7c0,0-7.1,2.7-14.1-4l2.6-3.1l-4.2,1.8l-3.7-3.1l4.3-1.8l-5.9,0.4l4.7-3.9l-6.4,2.5
					c0,0-4.4-4.8-5.6-12.5c0,0,7.4-2.4,17,4.1l-0.6,4.2l1.7-3.3c0,0,6.5,4.8,9.3,9.7l-1,3.4l1.6-2.3
					C178.6,408.8,180.5,412.6,179,416.7z"/>
				<path class="st9" d="M172.1,403.3c0,2,0.2,4,0.5,5.9c-1-1-2-2-3-3c0,0,0,0,0,0c-0.2-0.6-0.3-1.2-0.4-1.8c0-0.2,0-0.2,0-0.4
					c0-0.2,0-0.3,0-0.5c0-0.3,0-0.7,0-1c0-0.3-0.2-0.5-0.5-0.4c-0.3,0.1-0.5,0.3-0.5,0.6c0,0.7,0.1,1.5,0.2,2.2
					c-2.6-2.5-5.4-4.8-8.3-6.9c-0.2-0.2-0.4-0.3-0.7-0.5c0,0,0-0.1,0-0.1c-0.1-0.4-0.2-0.8-0.3-1.2c0-0.1,0-0.2-0.1-0.3
					c0-0.1,0-0.2,0-0.2c0,0,0,0,0,0c0,0,0,0,0-0.1c0-0.1,0-0.1,0-0.2c0-0.1,0-0.2,0-0.3c0-0.3-0.2-0.5-0.5-0.4
					c-0.3,0.1-0.5,0.3-0.5,0.6c0,0.4,0.1,0.9,0.2,1.3c-1.3-0.9-2.6-1.8-3.9-2.7c-0.5-0.3-1.2,0.5-0.7,0.9c2.6,1.7,5.2,3.5,7.7,5.4
					c-1.6,0-3.2,0.1-4.8,0.3c-0.3,0-0.5,0.3-0.5,0.6c0,0.3,0.2,0.4,0.5,0.4c1.9-0.2,3.9-0.3,5.8-0.3c0.1,0,0.2,0,0.2,0
					c3.6,2.9,7,6,10.2,9.4c1.6,1.7,3.1,3.5,4.6,5.3c0.4,0.5,1.2-0.2,0.9-0.7c-1.3-1.6-2.7-3.2-4.1-4.7c0-0.1,0-0.2,0-0.3
					c-0.5-2.3-0.8-4.7-0.8-7.1C173.1,402.4,172.1,402.6,172.1,403.3z"/>
			</g>
		</g>
	</g>
</g>
<g id="DESIGNED_BY_FREEPIK" class="st0">
	<g>
		<g id="XMLID_1_" class="st25">
			<g id="XMLID_20_">
				<path id="XMLID_28_" class="st17" d="M259.5,474.5c-0.4,0.4-0.8,0.9-1.1,1.5l-0.5-0.2c-0.1-0.3-0.3-0.5-0.7-0.5
					c-0.3,0-0.6,0.3-0.5,0.7c0,0.3,0.3,0.6,0.7,0.5c0.1,0,0.1,0,0.2-0.1l0.5,0.2c-0.3,0.6-0.4,1.1-0.5,1.7l0.7,0.1
					c0.2-1.3,0.8-2.5,1.8-3.5L259.5,474.5z"/>
				<path id="XMLID_27_" class="st17" d="M265,472.2c-0.2,0-0.3,0-0.5,0l-0.1-0.6c0.2-0.1,0.3-0.4,0.3-0.6c0-0.4-0.4-0.7-0.8-0.6
					c-0.4,0-0.7,0.4-0.6,0.8c0,0.3,0.2,0.5,0.4,0.6l0.1,0.6c-0.7,0.1-1.4,0.3-2.1,0.6l0.3,0.7c0.9-0.4,1.9-0.7,3-0.7
					c0.5,0,1,0.1,1.5,0.2l0.2-0.7C266.1,472.3,265.5,472.2,265,472.2z"/>
				<path id="XMLID_26_" class="st17" d="M271.6,474.8c0.3,0,0.6-0.3,0.5-0.7c0-0.3-0.3-0.6-0.7-0.5c-0.3,0-0.5,0.3-0.5,0.6
					l-0.4,0.4c-0.4-0.4-0.9-0.8-1.4-1.1l-0.4,0.6c1.1,0.7,2,1.7,2.6,2.9l0.7-0.3c-0.3-0.6-0.6-1.1-0.9-1.5l0.4-0.4
					C271.5,474.8,271.5,474.8,271.6,474.8z"/>
				<path id="XMLID_25_" class="st17" d="M264.4,482.4c-0.4,0-0.8,0-1.2,0c-0.9,0-1.7-0.1-2.5-0.2c-0.4-0.1-0.8-0.2-1.3-0.3
					c1,1.9,3.1,3.1,5.4,3.1c2.9,0,5.3-1.9,5.9-4.5c-0.7,0.4-1.5,0.8-2.5,1.1C267.2,482.1,265.9,482.4,264.4,482.4z"/>
				<path id="XMLID_21_" class="st17" d="M265,473.8c-3.4,0-6.1,2.7-6.1,5.9c0,0.4,0,0.8,0.1,1.3c0.7,0.5,2.7,0.9,5.3,0.7
					c2.9-0.2,5.3-1,6.7-2.2c0-0.2,0-0.4,0-0.6C270.6,476,268,473.8,265,473.8z M262.8,480.3c-1,0-1.8-0.8-1.8-1.8
					c0-1,0.8-1.8,1.8-1.8c1,0,1.8,0.8,1.8,1.8C264.7,479.4,263.9,480.3,262.8,480.3z M267.6,479.4c-0.8,0-1.4-0.6-1.4-1.4
					s0.6-1.4,1.4-1.4c0.8,0,1.4,0.6,1.4,1.4S268.3,479.4,267.6,479.4z"/>
			</g>
			<path id="XMLID_18_" class="st17" d="M281,475.6c-0.3-0.1-0.8-0.3-1.4-0.2c-0.6,0.1-0.8,0.3-0.8,1v0.9h2.2v1.7h-2.2v5.5h-1.9V479
				h-1.3v-1.7h1.3v-0.9c0-1.7,0.9-2.8,2.6-2.8c0.6,0,1.2,0.1,1.6,0.3L281,475.6z"/>
			<path id="XMLID_16_" class="st17" d="M285.7,479c-0.2,0-0.4,0-0.5,0c-0.9,0-1.5,0.5-1.5,1.6v3.9h-1.9v-7.2h1.9v0.8
				c0.5-0.7,1.1-1,2-1c0.4,0,0.8,0.1,1.1,0.3L285.7,479z"/>
			<path id="XMLID_13_" class="st17" d="M293.4,480.8c0,0.2,0,0.5,0,0.7h-5.1c0.2,1,0.9,1.5,1.8,1.5c0.6,0,1.3-0.3,1.8-0.7l1.1,1.2
				c-0.8,0.7-1.9,1.1-3.1,1.1c-2.2,0-3.7-1.5-3.7-3.8c0-2.3,1.5-3.8,3.6-3.8C291.9,477.1,293.4,478.6,293.4,480.8z M288.2,480.2h3.2
				c-0.2-0.9-0.7-1.4-1.6-1.4C289,478.7,288.4,479.3,288.2,480.2z"/>
			<path id="XMLID_10_" class="st17" d="M301,480.8c0,0.2,0,0.5,0,0.7h-5.1c0.2,1,0.9,1.5,1.8,1.5c0.6,0,1.3-0.3,1.8-0.7l1.1,1.2
				c-0.8,0.7-1.9,1.1-3.1,1.1c-2.2,0-3.7-1.5-3.7-3.8c0-2.3,1.5-3.8,3.6-3.8C299.6,477.1,301,478.6,301,480.8z M295.9,480.2h3.2
				c-0.2-0.9-0.7-1.4-1.6-1.4C296.6,478.7,296.1,479.3,295.9,480.2z"/>
			<path id="XMLID_7_" class="st17" d="M309.4,480.8c0,2.2-1.5,3.8-3.5,3.8c-1,0-1.6-0.4-2.1-0.9v3.7h-1.9v-10.1h1.9v0.8
				c0.5-0.6,1.2-1,2.1-1C307.9,477.1,309.4,478.7,309.4,480.8z M303.7,480.8c0,1.1,0.7,2,1.8,2c1.1,0,1.9-0.9,1.9-2
				c0-1.1-0.7-2-1.9-2C304.4,478.9,303.7,479.7,303.7,480.8z"/>
			<path id="XMLID_4_" class="st17" d="M312.5,474.9c0,0.7-0.5,1.2-1.2,1.2c-0.7,0-1.2-0.5-1.2-1.2c0-0.7,0.5-1.2,1.2-1.2
				C311.9,473.7,312.5,474.2,312.5,474.9z M312.2,484.4h-1.9v-7.2h1.9V484.4z"/>
			<path id="XMLID_2_" class="st17" d="M315.4,479.8l2.7-2.6h2.4l-3.5,3.4l3.5,3.8h-2.4l-2.7-2.9v2.9h-1.9v-10.7h1.9V479.8z"/>
		</g>
		<g class="st25">
			<path class="st17" d="M183.8,484.4v-1.1c-0.5,0.7-1.4,1.2-2.4,1.2c-1.8,0-3.1-1.4-3.1-3.7c0-2.3,1.3-3.7,3.1-3.7
				c1,0,1.8,0.5,2.4,1.2v-3.8h1.1v9.8H183.8z M183.8,482.4v-3.2c-0.4-0.6-1.2-1.1-2.1-1.1c-1.4,0-2.3,1.2-2.3,2.7
				c0,1.6,0.8,2.7,2.3,2.7C182.6,483.6,183.4,483.1,183.8,482.4z"/>
			<path class="st17" d="M186.3,480.8c0-2.1,1.5-3.7,3.5-3.7c2.1,0,3.4,1.7,3.4,3.8v0.3h-5.7c0.1,1.3,1,2.4,2.5,2.4
				c0.8,0,1.6-0.3,2.2-0.9l0.5,0.7c-0.7,0.7-1.7,1.1-2.8,1.1C187.8,484.5,186.3,483,186.3,480.8z M189.8,478c-1.5,0-2.3,1.3-2.3,2.4
				h4.6C192.1,479.3,191.4,478,189.8,478z"/>
			<path class="st17" d="M194,483.4l0.6-0.8c0.5,0.5,1.4,1,2.3,1c1.1,0,1.7-0.5,1.7-1.2c0-1.7-4.4-0.7-4.4-3.3c0-1.1,1-2,2.6-2
				c1.2,0,2.1,0.5,2.6,1l-0.5,0.8c-0.4-0.5-1.2-0.9-2.1-0.9c-1,0-1.6,0.5-1.6,1.1c0,1.6,4.4,0.5,4.4,3.3c0,1.2-1,2.1-2.8,2.1
				C195.7,484.5,194.7,484.2,194,483.4z"/>
			<path class="st17" d="M200.9,475.5c0-0.4,0.3-0.7,0.7-0.7c0.4,0,0.7,0.3,0.7,0.7c0,0.4-0.3,0.7-0.7,0.7
				C201.2,476.3,200.9,476,200.9,475.5z M201.1,484.4v-7.1h1.1v7.1H201.1z"/>
			<path class="st17" d="M204,486.2l0.6-0.8c0.6,0.7,1.3,1,2.3,1c1.2,0,2.3-0.6,2.3-2.1v-1c-0.5,0.7-1.4,1.3-2.4,1.3
				c-1.8,0-3.1-1.4-3.1-3.7c0-2.3,1.3-3.7,3.1-3.7c1,0,1.8,0.5,2.4,1.2v-1.1h1.1v6.9c0,2.3-1.6,3.1-3.4,3.1
				C205.6,487.2,204.8,487,204,486.2z M209.1,482.3v-3.1c-0.4-0.6-1.2-1.1-2.1-1.1c-1.4,0-2.3,1.1-2.3,2.7c0,1.6,0.8,2.7,2.3,2.7
				C207.9,483.5,208.7,482.9,209.1,482.3z"/>
			<path class="st17" d="M216.8,484.4v-4.6c0-1.2-0.6-1.6-1.6-1.6c-0.9,0-1.7,0.5-2.1,1.1v5.2H212v-7.1h1.1v1
				c0.5-0.6,1.5-1.2,2.5-1.2c1.5,0,2.3,0.7,2.3,2.3v5H216.8z"/>
			<path class="st17" d="M219.3,480.8c0-2.1,1.5-3.7,3.5-3.7c2.1,0,3.4,1.7,3.4,3.8v0.3h-5.7c0.1,1.3,1,2.4,2.5,2.4
				c0.8,0,1.6-0.3,2.2-0.9l0.5,0.7c-0.7,0.7-1.7,1.1-2.8,1.1C220.8,484.5,219.3,483,219.3,480.8z M222.8,478c-1.5,0-2.3,1.3-2.3,2.4
				h4.6C225.1,479.3,224.4,478,222.8,478z"/>
			<path class="st17" d="M232.7,484.4v-1.1c-0.5,0.7-1.4,1.2-2.4,1.2c-1.8,0-3.1-1.4-3.1-3.7c0-2.3,1.3-3.7,3.1-3.7
				c1,0,1.8,0.5,2.4,1.2v-3.8h1.1v9.8H232.7z M232.7,482.4v-3.2c-0.4-0.6-1.2-1.1-2.1-1.1c-1.4,0-2.3,1.2-2.3,2.7
				c0,1.6,0.8,2.7,2.3,2.7C231.5,483.6,232.4,483.1,232.7,482.4z"/>
			<path class="st17" d="M239.1,484.4v-9.8h1.1v3.8c0.6-0.8,1.4-1.2,2.4-1.2c1.8,0,3.1,1.5,3.1,3.7c0,2.3-1.3,3.7-3.1,3.7
				c-1,0-1.9-0.5-2.4-1.2v1.1H239.1z M242.3,483.6c1.4,0,2.3-1.2,2.3-2.7c0-1.6-0.8-2.7-2.3-2.7c-0.9,0-1.7,0.5-2.1,1.1v3.2
				C240.6,483.1,241.4,483.6,242.3,483.6z"/>
			<path class="st17" d="M246.9,486.1c0.2,0.1,0.4,0.1,0.6,0.1c0.5,0,0.8-0.2,1.1-0.7l0.5-1.1l-3-7.1h1.2l2.4,5.8l2.3-5.8h1.2
				l-3.5,8.5c-0.4,1-1.1,1.4-2.1,1.4c-0.2,0-0.6,0-0.8-0.1L246.9,486.1z"/>
		</g>
	</g>
</g>
</svg>
