<?xml version="1.0" encoding="utf-8"?>
<!-- Generator: Adobe Illustrator 26.1.0, SVG Export Plug-In . SVG Version: 6.00 Build 0)  -->
<svg version="1.1" xmlns="http://www.w3.org/2000/svg" xmlns:xlink="http://www.w3.org/1999/xlink" x="0px" y="0px"
	 viewBox="0 0 750 500" style="enable-background:new 0 0 750 500;" xml:space="preserve">
<style type="text/css">
	.st0{fill:#FFFFFF;}
	.st1{opacity:0.81;fill:#ECF1F7;}
	.st2{opacity:0.47;fill:#ECF1F7;}
	.st3{fill:#ECF1F7;}
	.st4{opacity:0.58;fill:#3E479B;}
	.st5{opacity:0.58;fill:#EF929C;}
	.st6{opacity:0.47;fill:#FFFFFF;}
	.st7{opacity:0.53;fill:#4C65BA;}
	.st8{opacity:0.47;fill:#599AF2;}
	.st9{opacity:0.74;fill:#EF929C;}
	.st10{fill:#373449;}
	.st11{fill:#F9DCD2;}
	.st12{fill:#EF929C;}
	.st13{opacity:0.37;fill:#EF929C;}
	.st14{opacity:0.79;fill:#3E479B;}
	.st15{fill:#3E479B;}
	.st16{fill:#4C65BA;}
	.st17{opacity:0.9;fill:#FFFFFF;}
	.st18{opacity:0.15;fill:#FFFFFF;}
	.st19{opacity:0.5;fill:#FFFFFF;}
	.st20{opacity:0.7;fill:#FFFFFF;}
	.st21{opacity:0.1;fill:#FFFFFF;}
	.st22{opacity:0.3;fill:#FFFFFF;}
	.st23{fill:#599AF2;}
	.st24{opacity:0.12;fill:#FFFFFF;}
	.st25{opacity:0.21;fill:#FFFFFF;}
	.st26{opacity:0.1;}
	.st27{display:none;}
	.st28{display:inline;}
</style>
<g id="BACKGROUND">
	<rect class="st0" width="750" height="500"/>
	<g>
		<g>
			<path class="st1" d="M51.6,240.4c-11.2-8.7-13.2-24.9-4.5-36c8.7-11.2,30.9-21,42.1-12.2c11.2,8.7-1.9,26.7-4.1,40.7
				C82,252.4,62.8,249.2,51.6,240.4z"/>
			<path class="st2" d="M684.3,311.2c9.8,3,15.2,13.4,12.2,23.1c-3,9.8-15.5,22-25.2,19c-9.8-3-5.6-18.5-7.6-28.5
				C660.8,310.9,674.5,308.2,684.3,311.2z"/>
			<path class="st2" d="M666.8,91.8c-4.3,13.8-18.9,21.6-32.7,17.3c-13.8-4.3-31.2-21.9-26.9-35.7c4.3-13.8,26.1-7.9,40.3-10.8
				C667.2,58.4,671,78,666.8,91.8z"/>
		</g>
		<g>
			<path class="st3" d="M621.9,388.6c5.4-27.4-3.1-50.7-5.1-77.6c-1.9-25.4,6.8-46.8,11.7-71c4.3-21.6,3-46-2.4-67.1
				c-7.3-28.9-24.1-55.6-48.5-71.9C539.7,75.7,489,78.9,447,96.5c-17.6,7.4-34.6,17.2-53.5,19.7c-27.5,3.7-54.1-8.6-80.9-15.9
				c-36.4-10-76.3-10.6-110.7,5.3c-39,18.1-66.8,58.7-63.7,103.4c1.4,20.3,8.9,40.2,6.2,60.3c-2.7,20.4-14.4,37.5-20.7,56.8
				c-9.2,28.5-9.4,71.4,7.9,97.9h476.9C614.9,413.2,619.4,401.1,621.9,388.6z"/>
			<g>
				<path class="st2" d="M682.9,213.5c-2.9-30.2-16.9-60.4-41.2-82c-37.9-33.6-95.2-42-145.5-34.2c-21.1,3.3-42,9.1-63.5,7.3
					c-31.4-2.6-59.1-20.7-87.7-34c-39-18.1-83.6-27.8-125.1-19.8c-47,9-85.6,42.9-90.2,87.7c-2.1,20.3,19,56.1,12.3,75.3
					c-6.8,19.5-56.3,79.4-55.2,124.9c1.2,47.1,13.5,60.5,30.6,85.2h14.4h476.9h30.8c10.7-25.1,20.1-44.1,7.8-76.2
					c-9.3-24.5,16.2-44.7,26-67.5C682,260,685,235.6,682.9,213.5z"/>
			</g>
		</g>
	</g>
	<circle class="st4" cx="697.2" cy="271.4" r="4.6"/>
	<circle class="st4" cx="351.1" cy="37.6" r="4.6"/>
	<path class="st5" d="M668.1,399c0,2-1.6,3.6-3.6,3.6s-3.6-1.6-3.6-3.6c0-2,1.6-3.6,3.6-3.6S668.1,397,668.1,399z"/>
	<circle class="st5" cx="110.1" cy="112.1" r="4.6"/>
	<circle class="st4" cx="75.4" cy="284.6" r="3.6"/>
	<path class="st4" d="M82.1,134.6c0,0.8-0.7,1.5-1.5,1.5s-1.5-0.7-1.5-1.5c0-0.8,0.7-1.5,1.5-1.5S82.1,133.7,82.1,134.6z"/>
	<path class="st5" d="M474.6,48.5c-0.6,3-3.6,4.9-6.5,4.2c-3-0.6-4.9-3.6-4.2-6.5c0.6-3,3.6-4.9,6.5-4.2
		C473.3,42.6,475.2,45.6,474.6,48.5z"/>
	<path class="st5" d="M57,314c-0.6,3-3.6,4.9-6.5,4.2c-3-0.6-4.9-3.6-4.2-6.5c0.6-3,3.6-4.9,6.5-4.2C55.8,308.1,57.7,311,57,314z"/>
	<path class="st4" d="M426.5,82c-0.2,1-1.2,1.6-2.2,1.4c-1-0.2-1.6-1.2-1.4-2.2c0.2-1,1.2-1.6,2.2-1.4C426.1,80.1,426.7,81,426.5,82
		z"/>
</g>
<g id="OBJECTS">
	<g>
		<g>
			<g>
				<path class="st6" d="M662.6,326.3h-96.3c-2.5,0-4.5-2-4.5-4.5V216.8c0-2.5,2-4.5,4.5-4.5h96.3c2.5,0,4.5,2,4.5,4.5v104.9
					C667.1,324.3,665.1,326.3,662.6,326.3z"/>
				<path class="st0" d="M643.5,233.7h-58.1c-1.1,0-2-0.9-2-2v-8.1c0-1.1,0.9-2,2-2h58.1c1.1,0,2,0.9,2,2v8.1
					C645.5,232.8,644.6,233.7,643.5,233.7z"/>
				<path class="st0" d="M643.5,243h-58.1c-1.1,0-2-0.9-2-2V241c0-1.1,0.9-2,2-2h58.1c1.1,0,2,0.9,2,2v0.1
					C645.5,242.1,644.6,243,643.5,243z"/>
				<path class="st0" d="M643.5,252.1h-58.1c-1.1,0-2-0.9-2-2v-0.1c0-1.1,0.9-2,2-2h58.1c1.1,0,2,0.9,2,2v0.1
					C645.5,251.3,644.6,252.1,643.5,252.1z"/>
				<path class="st0" d="M587.5,265.6c0,2.8-2.2,5-5,5s-5-2.2-5-5c0-2.8,2.2-5,5-5S587.5,262.9,587.5,265.6z"/>
				<path class="st0" d="M587.5,288.3c0,2.8-2.2,5-5,5s-5-2.2-5-5s2.2-5,5-5S587.5,285.5,587.5,288.3z"/>
				<path class="st0" d="M587.5,310.3c0,2.8-2.2,5-5,5s-5-2.2-5-5c0-2.8,2.2-5,5-5S587.5,307.5,587.5,310.3z"/>
				<path class="st0" d="M638.1,263.7h-47.8c-0.3,0-0.5-0.2-0.5-0.5c0-0.3,0.2-0.5,0.5-0.5h47.8c0.3,0,0.5,0.2,0.5,0.5
					C638.6,263.5,638.4,263.7,638.1,263.7z"/>
				<path class="st0" d="M614.2,268.8h-23.9c-0.3,0-0.5-0.2-0.5-0.5c0-0.3,0.2-0.5,0.5-0.5h23.9c0.3,0,0.5,0.2,0.5,0.5
					C614.7,268.6,614.5,268.8,614.2,268.8z"/>
				<path class="st0" d="M638.1,287.1h-47.8c-0.3,0-0.5-0.2-0.5-0.5c0-0.3,0.2-0.5,0.5-0.5h47.8c0.3,0,0.5,0.2,0.5,0.5
					C638.6,286.9,638.4,287.1,638.1,287.1z"/>
				<path class="st0" d="M614.2,292.2h-23.9c-0.3,0-0.5-0.2-0.5-0.5c0-0.3,0.2-0.5,0.5-0.5h23.9c0.3,0,0.5,0.2,0.5,0.5
					C614.7,292,614.5,292.2,614.2,292.2z"/>
				<path class="st0" d="M638.1,308.5h-47.8c-0.3,0-0.5-0.2-0.5-0.5c0-0.3,0.2-0.5,0.5-0.5h47.8c0.3,0,0.5,0.2,0.5,0.5
					C638.6,308.2,638.4,308.5,638.1,308.5z"/>
				<path class="st0" d="M614.2,313.6h-23.9c-0.3,0-0.5-0.2-0.5-0.5c0-0.3,0.2-0.5,0.5-0.5h23.9c0.3,0,0.5,0.2,0.5,0.5
					C614.7,313.3,614.5,313.6,614.2,313.6z"/>
			</g>
		</g>
		<g>
			<path class="st7" d="M448.6,68.5h125.3c1.2,0,2.1,0.9,2.1,2.1v41.2c0,1.2-0.9,2.1-2.1,2.1h-90.3l-20.7,20.7v-20.7h-14.4
				c-1.2,0-2.1-0.9-2.1-2.1V70.6C446.5,69.4,447.4,68.5,448.6,68.5z"/>
			<g>
				<path class="st0" d="M466.6,82.3h89c0.6,0,1-0.3,1-0.6c0-0.3-0.5-0.6-1-0.6h-89c-0.6,0-1,0.3-1,0.6
					C465.6,82,466,82.3,466.6,82.3z"/>
				<path class="st0" d="M466.6,103.3h89c0.6,0,1-0.3,1-0.6c0-0.3-0.5-0.6-1-0.6h-89c-0.6,0-1,0.3-1,0.6
					C465.6,103,466,103.3,466.6,103.3z"/>
				<g>
					<path class="st0" d="M509.1,92.4h46.5c0.6,0,1-0.3,1-0.6c0-0.3-0.5-0.6-1-0.6h-46.5c-0.6,0-1,0.3-1,0.6
						C508.1,92.1,508.5,92.4,509.1,92.4z"/>
					<path class="st0" d="M480.1,92.4h20.2c0.6,0,1-0.3,1-0.6c0-0.3-0.5-0.6-1-0.6h-20.2c-0.6,0-1,0.3-1,0.6
						C479.1,92.1,479.5,92.4,480.1,92.4z"/>
				</g>
			</g>
		</g>
		<g>
			<g>
				<path class="st8" d="M532.4,199h63.4c2.8,0,5.1-2.3,5.1-5.1v-20.1c0-2.8-2.3-5.1-5.1-5.1h-63.4c-2.8,0-5.1,2.3-5.1,5.1v20.1
					C527.3,196.7,529.6,199,532.4,199z"/>
			</g>
			<g>
				<g>
					<path class="st0" d="M544.7,175h75.6c2.3,0,4.2-1.9,4.2-4.2v-23.2c0-2.3-1.9-4.2-4.2-4.2h-75.6c-2.3,0-4.2,1.9-4.2,4.2v23.2
						C540.6,173.1,542.4,175,544.7,175z"/>
					<path class="st9" d="M544.7,175h75.6c2.3,0,4.2-1.9,4.2-4.2v-23.2c0-2.3-1.9-4.2-4.2-4.2h-75.6c-2.3,0-4.2,1.9-4.2,4.2v23.2
						C540.6,173.1,542.4,175,544.7,175z"/>
				</g>
				<g>
					<g>
						<path class="st0" d="M597.8,162.9c-2,0-3.7-1.7-3.7-3.7c0-2,1.7-3.7,3.7-3.7c2,0,3.7,1.7,3.7,3.7
							C601.5,161.3,599.9,162.9,597.8,162.9z M597.8,156.5c-1.5,0-2.7,1.2-2.7,2.7s1.2,2.7,2.7,2.7c1.5,0,2.7-1.2,2.7-2.7
							S599.3,156.5,597.8,156.5z"/>
						<path class="st0" d="M582.8,162.9c-2,0-3.7-1.7-3.7-3.7c0-2,1.7-3.7,3.7-3.7c2,0,3.7,1.7,3.7,3.7
							C586.5,161.3,584.8,162.9,582.8,162.9z M582.8,156.5c-1.5,0-2.7,1.2-2.7,2.7s1.2,2.7,2.7,2.7c1.5,0,2.7-1.2,2.7-2.7
							S584.3,156.5,582.8,156.5z"/>
						<path class="st0" d="M568.8,162.9c-2,0-3.7-1.7-3.7-3.7c0-2,1.7-3.7,3.7-3.7c2,0,3.7,1.7,3.7,3.7
							C572.5,161.3,570.8,162.9,568.8,162.9z M568.8,156.5c-1.5,0-2.7,1.2-2.7,2.7s1.2,2.7,2.7,2.7c1.5,0,2.7-1.2,2.7-2.7
							S570.3,156.5,568.8,156.5z"/>
					</g>
				</g>
			</g>
		</g>
	</g>
	<g>
		<g>
			<g>
				<path class="st10" d="M568.8,420.4l0.2,0l0,1.9l-21.1,0.3l0-1.4c0-0.2,0.1-0.4,0.3-0.5c0.1,0,0.1,0,0.2,0L568.8,420.4z"/>
				<path class="st10" d="M561.4,413.3l6.4-0.1c0.2,0,0.3,0,0.4,0.1c0,0,0.1,0.1,0.1,0.1c0.1,0.1,0.2,0.3,0.2,0.5l0,0.7l0.1,2.4
					l0.1,3.3l-20.4,0.3c-0.1,0-0.1,0-0.2,0c0.5-1.5,1.6-2.6,3.1-3l4.7-0.4c1.1-0.6,2.1-1.1,3.2-1.6l1.9-2.3c0,0,0.1,0,0.1,0
					c0,0,0.1,0,0.1,0C561.3,413.3,561.4,413.3,561.4,413.3z"/>
			</g>
			<path class="st10" d="M606.5,342.1l-14.9-42.7l-0.2-1.6h-40.7v22.4c0,2.9,0.1,5.7,0.4,8.6l7.8,86H570l2.8-97.8l0.6-0.1l15.9,31.7
				l-11.9,26.9c-0.2,0.4-0.1,0.8,0.3,1l7.5,5.8c0.6,0.5,1.5,0.3,1.9-0.4l18.8-33.2C607,346.7,607.2,344.3,606.5,342.1z"/>
			<g>
				<path class="st10" d="M574.8,381l-0.1-0.1l-1.3,1.4l14.8,15.1l1-1c0.2-0.2,0.2-0.4,0.1-0.6c0,0,0-0.1-0.1-0.1L574.8,381z"/>
				<path class="st10" d="M585,381.2l-4.5-4.5c-0.1-0.1-0.2-0.2-0.4-0.2c-0.1,0-0.1,0-0.2,0c-0.2,0-0.3,0.1-0.5,0.2l-0.5,0.5
					l-1.8,1.6l-2.4,2.2l14.3,14.6c0,0,0.1,0.1,0.1,0.1c0.7-1.4,0.7-3-0.1-4.3l-3.1-3.6c-0.4-1.2-0.7-2.2-1.1-3.4l0.3-3
					c0,0,0-0.1-0.1-0.1c0,0,0-0.1,0-0.1C585.1,381.3,585.1,381.3,585,381.2z"/>
			</g>
		</g>
		<g>
			<g>
				<path class="st11" d="M601.6,256c-0.6-1.1-7.6,5.6-9.2,12.2c-0.1,0.3,0.1-0.2,0,0l5.9,8.4l-16.1,18l4.1,3.1
					c0,0,23.4-15.3,24.8-20.9C612.2,272.9,604.5,261.2,601.6,256z"/>
			</g>
			<g>
				<path class="st11" d="M515.5,254.1c-0.4-0.9-1.2-2.1-3.2-3.7l-3.6-3.1c-0.3-0.2-0.6-0.3-0.9-0.1l-0.1,0.1
					c-0.3,0.2-0.4,0.6-0.2,0.9l1.6,2.6c0.3,0.5-0.1,1.1-0.6,1.1l-3.7-0.3c0,0-0.1,0-0.1,0l-4.7-1.1c-0.4-0.1-0.7,0.1-0.8,0.5l0,0.2
					c-0.1,0.4,0.1,0.8,0.5,0.9l4.9,1.5l-6-0.9c-0.4-0.1-0.8,0.2-0.8,0.6l0,0.1c0,0.4,0.2,0.7,0.6,0.8l6.1,1.5l-5.3-0.5
					c-0.5,0-0.8,0.4-0.7,0.8l0,0.2c0.1,0.3,0.3,0.5,0.6,0.6l5.2,1l-3.7,0.2c-0.3,0-0.6,0.2-0.6,0.5c-0.1,0.4,0.2,0.8,0.7,0.9l4,0.4
					c0,0,0,0,0.1,0c0.5,0.1,7,1.5,9.5,1.6c0,0,0.1,0,0.1,0l26.4,2.5c0.1,0,0.1,0,0.2,0c-1.3-3.9-2.1-8-2.4-12L515.5,254.1z"/>
				<path class="st12" d="M601.9,256.2c-2.8-3.3-5.5-6.3-7.2-7.9c-4.4-4.2-12.6-3.7-12.6-3.7l-22.1,1.7c-2.5,0.2-5.1,0.5-7.6,1
					c-4.9,0.9-9.3,1.8-14.2,2.8c0,0.5,0.1,1,0.1,1.4c0.3,4.1,1.1,8.1,2.4,12c0.1,0.2,0.1,0.3,0.2,0.5c5.6-0.6,9.9-1,9.9-1l-0.1,45.8
					l40.7-9.2l-1.8-33.5l2.9,1.8C595.1,263.8,598.4,259.9,601.9,256.2z"/>
			</g>
		</g>
		<g>
			<path class="st10" d="M592.7,236.6c-1.8-6.1-5.4-7.8-7.9-8.3c1.5-2.5,2.6-5.3,2.9-8.4c0.8-8.8-13.8-23.5-22.4-12.8
				c-2.8,0.1-6.1,1.3-9.4,5.3c-6.2,7.5-4.3,13.4-2.3,16.6c1,1.5,2.4,2.7,4.1,3.3l13,4.9c2.7,1,5.7,0.4,7.8-1.5
				c0.8-0.7,1.7-1.6,2.6-2.6c4.4,1.9,2.3,6,2.3,6c-4.4,9.4,1,14.1,5,16.8c1.7,1.2,4.1,0.2,4.5-1.9
				C593.7,249.9,594.5,242.8,592.7,236.6z"/>
			<g>
				<g>
					<path class="st11" d="M579.6,223.1l-0.6,0c0,0,0,0,0,0l-2.8,4.5c-3.7-1.9-5.1-6.7-5.5-10.9c-3.1,2-8,4.3-14.6,4.4l-1.1,10.9
						c-0.6,6,4.8,10.5,9.6,10.8l-0.1,3.6c-0.7,4.1,1.6,7.9,5,8.4c3.2,0.5,6.3-2.1,7-5.9l1.3-17.7c0.1,0,0.1,0,0.2,0l1.2,0.1
						c1.5,0.1,2.7-1,2.8-2.5l0.2-2.7C582.2,224.5,581,223.2,579.6,223.1z"/>
				</g>
				<polygon class="st13" points="573,242.8 564.4,243 564.4,246 				"/>
			</g>
			<g>
				<g>
					<g>
						<g>
							<g>
								<path class="st10" d="M559.7,224.7c-0.2,0.1-0.5,0-0.7,0c-0.2,0-0.5-0.1-0.7-0.1c-0.2,0-0.5,0-0.7,0c-0.2,0-0.5,0-0.7-0.1
									c-0.2-0.1-0.2-0.4,0-0.7c0.2-0.3,0.8-0.7,1.5-0.6c0.7,0.1,1.2,0.5,1.4,0.8C560,224.3,559.9,224.6,559.7,224.7z"/>
							</g>
							<g>
								<path class="st10" d="M568.2,225.2c-0.2,0.1-0.5,0-0.7,0c-0.2,0-0.5-0.1-0.7-0.1c-0.2,0-0.5,0-0.7,0c-0.2,0-0.5,0-0.7-0.1
									c-0.2-0.1-0.2-0.4,0-0.7c0.2-0.3,0.8-0.7,1.5-0.6c0.7,0.1,1.2,0.5,1.4,0.8C568.5,224.8,568.4,225.1,568.2,225.2z"/>
							</g>
							<path class="st10" d="M557.8,228.2L557.8,228.2c-0.3,0-0.5-0.3-0.5-0.6l0.1-1.1c0-0.3,0.3-0.5,0.6-0.5l0,0
								c0.3,0,0.5,0.3,0.5,0.6l-0.1,1.1C558.4,228,558.1,228.2,557.8,228.2z"/>
							<path class="st10" d="M566,229L566,229c-0.3,0-0.5-0.3-0.5-0.6l0.1-1.1c0-0.3,0.3-0.5,0.6-0.5l0,0c0.3,0,0.5,0.3,0.5,0.6
								l-0.1,1.1C566.6,228.8,566.4,229,566,229z"/>
						</g>
					</g>
					<path class="st12" d="M562.4,231C562.4,231,562.4,231,562.4,231l-0.9-0.1c-0.5,0-1-0.3-1.3-0.8c-0.3-0.5-0.2-1,0-1.5l0-0.1
						l0.1,0c0.8-0.3,1.4-1.1,1.5-1.9l0-0.3c0-0.1,0.1-0.2,0.3-0.2c0.1,0,0.2,0.1,0.2,0.3l0,0.3c-0.1,1-0.8,1.9-1.7,2.3
						c-0.1,0.3-0.1,0.7,0,1c0.2,0.3,0.5,0.5,0.9,0.6l0.9,0.1c0.1,0,0.2,0.1,0.2,0.3C562.6,230.9,562.5,231,562.4,231z"/>
					<g>
						<g>
							<path class="st0" d="M565.6,235.7l-2.2-0.1c-0.5,0-0.9-0.5-0.8-1l0.1-2.2l5.1,0.3l-0.1,1.1
								C567.7,234.9,566.7,235.8,565.6,235.7z"/>
						</g>
					</g>
				</g>
			</g>
		</g>
	</g>
	<g>
		<g>
			<g>
				<path class="st6" d="M242.5,367.8h-96.3c-2.5,0-4.5-2-4.5-4.5V258.4c0-2.5,2-4.5,4.5-4.5h96.3c2.5,0,4.5,2,4.5,4.5v104.9
					C247,365.8,245,367.8,242.5,367.8z"/>
				<path class="st0" d="M223.4,275.3h-58.1c-1.1,0-2-0.9-2-2v-8.1c0-1.1,0.9-2,2-2h58.1c1.1,0,2,0.9,2,2v8.1
					C225.4,274.4,224.5,275.3,223.4,275.3z"/>
				<path class="st0" d="M223.4,284.5h-58.1c-1.1,0-2-0.9-2-2v-0.1c0-1.1,0.9-2,2-2h58.1c1.1,0,2,0.9,2,2v0.1
					C225.4,283.7,224.5,284.5,223.4,284.5z"/>
				<path class="st0" d="M223.4,293.7h-58.1c-1.1,0-2-0.9-2-2v-0.1c0-1.1,0.9-2,2-2h58.1c1.1,0,2,0.9,2,2v0.1
					C225.4,292.8,224.5,293.7,223.4,293.7z"/>
				<path class="st0" d="M167.4,307.2c0,2.8-2.2,5-5,5c-2.8,0-5-2.2-5-5c0-2.8,2.2-5,5-5C165.2,302.2,167.4,304.4,167.4,307.2z"/>
				<path class="st0" d="M167.4,329.9c0,2.8-2.2,5-5,5c-2.8,0-5-2.2-5-5s2.2-5,5-5C165.2,324.9,167.4,327.1,167.4,329.9z"/>
				<path class="st0" d="M167.4,351.8c0,2.8-2.2,5-5,5c-2.8,0-5-2.2-5-5c0-2.8,2.2-5,5-5C165.2,346.8,167.4,349.1,167.4,351.8z"/>
				<path class="st0" d="M218.1,305.3h-47.8c-0.3,0-0.5-0.2-0.5-0.5s0.2-0.5,0.5-0.5h47.8c0.3,0,0.5,0.2,0.5,0.5
					S218.3,305.3,218.1,305.3z"/>
				<path class="st0" d="M194.1,310.3h-23.9c-0.3,0-0.5-0.2-0.5-0.5c0-0.3,0.2-0.5,0.5-0.5h23.9c0.3,0,0.5,0.2,0.5,0.5
					C194.6,310.1,194.4,310.3,194.1,310.3z"/>
				<path class="st0" d="M218.1,328.7h-47.8c-0.3,0-0.5-0.2-0.5-0.5c0-0.3,0.2-0.5,0.5-0.5h47.8c0.3,0,0.5,0.2,0.5,0.5
					C218.6,328.4,218.3,328.7,218.1,328.7z"/>
				<path class="st0" d="M194.1,333.7h-23.9c-0.3,0-0.5-0.2-0.5-0.5s0.2-0.5,0.5-0.5h23.9c0.3,0,0.5,0.2,0.5,0.5
					S194.4,333.7,194.1,333.7z"/>
				<path class="st0" d="M218.1,350h-47.8c-0.3,0-0.5-0.2-0.5-0.5c0-0.3,0.2-0.5,0.5-0.5h47.8c0.3,0,0.5,0.2,0.5,0.5
					C218.6,349.8,218.3,350,218.1,350z"/>
				<path class="st0" d="M194.1,355.1h-23.9c-0.3,0-0.5-0.2-0.5-0.5s0.2-0.5,0.5-0.5h23.9c0.3,0,0.5,0.2,0.5,0.5
					S194.4,355.1,194.1,355.1z"/>
			</g>
		</g>
		<g>
			<path class="st14" d="M201.7,199.1h-82.9c-0.8,0-1.4,0.6-1.4,1.4v27.3c0,0.8,0.6,1.4,1.4,1.4h59.7l13.7,13.7v-13.7h9.5
				c0.8,0,1.4-0.6,1.4-1.4v-27.3C203.1,199.7,202.5,199.1,201.7,199.1z"/>
			<g>
				<path class="st0" d="M189.8,208.2h-58.9c-0.4,0-0.7-0.2-0.7-0.4c0-0.2,0.3-0.4,0.7-0.4h58.9c0.4,0,0.7,0.2,0.7,0.4
					C190.4,208,190.1,208.2,189.8,208.2z"/>
				<path class="st0" d="M189.8,222.1h-58.9c-0.4,0-0.7-0.2-0.7-0.4s0.3-0.4,0.7-0.4h58.9c0.4,0,0.7,0.2,0.7,0.4
					S190.1,222.1,189.8,222.1z"/>
				<g>
					<path class="st0" d="M161.7,214.9h-30.8c-0.4,0-0.7-0.2-0.7-0.4s0.3-0.4,0.7-0.4h30.8c0.4,0,0.7,0.2,0.7,0.4
						S162,214.9,161.7,214.9z"/>
					<path class="st0" d="M180.8,214.9h-13.4c-0.4,0-0.7-0.2-0.7-0.4s0.3-0.4,0.7-0.4h13.4c0.4,0,0.7,0.2,0.7,0.4
						S181.2,214.9,180.8,214.9z"/>
				</g>
			</g>
		</g>
		<g>
			<g>
				<path class="st8" d="M281.7,180.7h-110c-4.9,0-8.9-4-8.9-8.9v-34.9c0-4.9,4-8.9,8.9-8.9h110c4.9,0,8.9,4,8.9,8.9v34.9
					C290.7,176.7,286.6,180.7,281.7,180.7z"/>
			</g>
			<g>
				<g>
					<path class="st0" d="M260.4,139.1H129.2c-4,0-7.2-3.2-7.2-7.2V91.7c0-4,3.2-7.2,7.2-7.2h131.2c4,0,7.2,3.2,7.2,7.2v40.2
						C267.6,135.8,264.4,139.1,260.4,139.1z"/>
					<path class="st9" d="M260.4,139.1H129.2c-4,0-7.2-3.2-7.2-7.2V91.7c0-4,3.2-7.2,7.2-7.2h131.2c4,0,7.2,3.2,7.2,7.2v40.2
						C267.6,135.8,264.4,139.1,260.4,139.1z"/>
				</g>
				<g>
					<g>
						<path class="st0" d="M168.2,117.7c-3.3,0-6-2.7-6-6s2.7-6,6-6c3.3,0,6,2.7,6,6S171.6,117.7,168.2,117.7z M168.2,106.7
							c-2.8,0-5,2.3-5,5s2.3,5,5,5c2.8,0,5-2.3,5-5S171,106.7,168.2,106.7z"/>
						<path class="st0" d="M194.3,117.7c-3.3,0-6-2.7-6-6s2.7-6,6-6c3.3,0,6,2.7,6,6S197.7,117.7,194.3,117.7z M194.3,106.7
							c-2.8,0-5,2.3-5,5s2.3,5,5,5c2.8,0,5-2.3,5-5S197.1,106.7,194.3,106.7z"/>
						<path class="st0" d="M218.7,117.7c-3.3,0-6-2.7-6-6s2.7-6,6-6c3.3,0,6,2.7,6,6S222,117.7,218.7,117.7z M218.7,106.7
							c-2.8,0-5,2.3-5,5s2.3,5,5,5c2.8,0,5-2.3,5-5S221.4,106.7,218.7,106.7z"/>
					</g>
				</g>
			</g>
		</g>
	</g>
	<g>
		<g>
			<rect x="342" y="365.6" class="st15" width="65.5" height="47.9"/>
			<path class="st15" d="M529,350.4H220.4c-4.6,0-8.3-3.7-8.3-8.3V159.4c0-4.6,3.7-8.3,8.3-8.3H529c4.6,0,8.3,3.7,8.3,8.3v182.7
				C537.3,346.7,533.6,350.4,529,350.4z"/>
			<path class="st16" d="M527.6,370.3H221.8c-5.3,0-9.7-5.1-9.7-11.4v-29.5h325.1v29.5C537.3,365.2,532.9,370.3,527.6,370.3z"/>
			<path class="st0" d="M521.5,328.6H228c-1,0-1.8-0.8-1.8-1.8V166.7c0-1,0.8-1.8,1.8-1.8h293.5c1,0,1.8,0.8,1.8,1.8v160.2
				C523.2,327.8,522.4,328.6,521.5,328.6z"/>
			<path class="st1" d="M500.9,317.7H248.5c-1,0-1.8-0.8-1.8-1.8V178.4c0-1,0.8-1.8,1.8-1.8h252.4c1,0,1.8,0.8,1.8,1.8v137.5
				C502.7,316.9,501.9,317.7,500.9,317.7z"/>
			<path class="st0" d="M374.7,362c-6.6,0-11.9-5.3-11.9-11.9s5.3-11.9,11.9-11.9c6.6,0,11.9,5.3,11.9,11.9S381.3,362,374.7,362z
				 M374.7,339.2c-6,0-10.9,4.9-10.9,10.9c0,6,4.9,10.9,10.9,10.9c6,0,10.9-4.9,10.9-10.9C385.6,344.1,380.7,339.2,374.7,339.2z"/>
			<path class="st16" d="M444.3,421.7H305.1v-2c0-6.6,5.4-12,12-12h115.2c6.6,0,12,5.4,12,12V421.7z"/>
			<g>
				<circle class="st17" cx="374.7" cy="213.8" r="8.7"/>
				<circle class="st18" cx="374.7" cy="279.8" r="8.7"/>
				<circle class="st19" cx="407.7" cy="246.8" r="8.7"/>
				<circle class="st0" cx="341.7" cy="246.8" r="8.7"/>
				<path class="st20" d="M404.2,229.6c-3.4,3.4-8.9,3.4-12.3,0c-3.4-3.4-3.4-8.9,0-12.3c3.4-3.4,8.9-3.4,12.3,0
					C407.6,220.7,407.6,226.2,404.2,229.6z"/>
				<circle class="st21" cx="351.4" cy="270.1" r="8.7"/>
				<path class="st22" d="M391.9,276.3c-3.4-3.4-3.4-8.9,0-12.3c3.4-3.4,8.9-3.4,12.3,0c3.4,3.4,3.4,8.9,0,12.3
					C400.8,279.7,395.3,279.7,391.9,276.3z"/>
				<path class="st0" d="M345.2,229.6c-3.4-3.4-3.4-8.9,0-12.3c3.4-3.4,8.9-3.4,12.3,0c3.4,3.4,3.4,8.9,0,12.3
					C354.1,233,348.6,233,345.2,229.6z"/>
			</g>
			<g>
				<path class="st8" d="M521.5,181.7H228c-1,0-1.8-0.8-1.8-1.8v-13.2c0-1,0.8-1.8,1.8-1.8h293.5c1,0,1.8,0.8,1.8,1.8v13.2
					C523.2,180.9,522.4,181.7,521.5,181.7z"/>
				<path class="st3" d="M494.7,173c0,0.8-0.7,1.5-1.5,1.5c-0.8,0-1.5-0.7-1.5-1.5s0.7-1.5,1.5-1.5
					C494.1,171.5,494.7,172.2,494.7,173z"/>
				<path class="st3" d="M511,173c0,0.8-0.7,1.5-1.5,1.5s-1.5-0.7-1.5-1.5s0.7-1.5,1.5-1.5S511,172.2,511,173z"/>
				<circle class="st3" cx="501.4" cy="173" r="1.5"/>
			</g>
		</g>
		<g>
			<path class="st23" d="M235.6,342.8l1.6-4.5c0.7-2,2.6-3.3,4.7-3.3H281c2.8,0,5,2.2,5,5v6.2v10.3v61.3c0,2.8-2.2,5-5,5H163
				c-2.8,0-5-2.2-5-5v-66.6c0-2.8,2.2-5,5-5h67.9C233,346.2,234.9,344.8,235.6,342.8z"/>
			<path class="st24" d="M238.5,347.4l1.5-4.3c0.7-1.9,2.4-3.2,4.4-3.2h36.9c2.6,0,4.7,2.1,4.7,4.7v5.9v9.7v57.8
				c0,2.6-2.1,4.7-4.7,4.7H170.1c-2.6,0-4.7-2.1-4.7-4.7v-62.8c0-2.6,2.1-4.7,4.7-4.7h64C236.1,350.6,237.9,349.3,238.5,347.4z"/>
		</g>
	</g>
	<g>
		<g>
			<circle class="st25" cx="431.7" cy="263.1" r="69.7"/>
			
				<ellipse transform="matrix(0.9755 -0.22 0.22 0.9755 -38.0389 101.2496)" class="st1" cx="435.6" cy="221.4" rx="15.1" ry="15.1"/>
		</g>
		<path class="st4" d="M431.7,334.9c-39.6,0-71.7-32.2-71.7-71.7s32.2-71.7,71.7-71.7s71.7,32.2,71.7,71.7S471.2,334.9,431.7,334.9z
			 M431.7,195.4c-37.3,0-67.7,30.4-67.7,67.7c0,37.3,30.4,67.7,67.7,67.7c37.3,0,67.7-30.4,67.7-67.7
			C499.4,225.8,469,195.4,431.7,195.4z"/>
		<g>
			<g>
				<path class="st15" d="M543.3,362.1l-45.9-45c-0.9-0.9-1.9-1.6-3-2c11.7-14.1,18.8-32.2,18.8-52c0-44.9-36.4-81.4-81.4-81.4
					s-81.4,36.4-81.4,81.4s36.4,81.4,81.4,81.4c18.8,0,36.1-6.4,49.9-17.1c0.5,1.3,1.2,2.5,2.3,3.5l45.9,45c1.9,1.8,4.3,2.8,6.7,2.8
					c2.5,0,5-1,6.9-2.9C547.1,372,547.1,365.8,543.3,362.1z M361.9,263.1c0-38.5,31.2-69.7,69.7-69.7s69.7,31.2,69.7,69.7
					s-31.2,69.7-69.7,69.7S361.9,301.7,361.9,263.1z"/>
			</g>
		</g>
		<g>
			<g>
				<path class="st23" d="M592.4,400.9l-66.8-66.8c-1.7-1.7-26.3,22.9-24.6,24.6l66.8,66.8c6.8,6.8,17.8,6.8,24.6,0v0
					C599.2,418.7,599.2,407.7,592.4,400.9z M587.3,412.2c0,3.4-2.7,6.1-6.1,6.1c-3.4,0-6.1-2.7-6.1-6.1v0c0-3.4,2.7-6.1,6.1-6.1
					C584.6,406.1,587.3,408.9,587.3,412.2L587.3,412.2z"/>
			</g>
			<g class="st26">
				<path class="st0" d="M584.6,417.3c-1,0.6-2.1,1-3.4,1c-3.4,0-6.1-2.7-6.1-6.1v0c0-1.3,0.4-2.5,1.1-3.5
					c-15.3-15.8-37.8-39-51.4-52.9c-7-7.2-11.6-12-11.7-11.9c-6.6,6.5-13.2,13.9-12.3,14.8l66.8,66.8c6.8,6.8,17.8,6.8,24.6,0v0
					C592.4,425.5,589.4,422.4,584.6,417.3z"/>
			</g>
			<path class="st0" d="M529.2,338.3l-24.1,24.1c-1.1,1.1-2.9,1.1-4,0l-4.4-4.4c-1.1-1.1-1.1-2.9,0-4l24.1-24.1c1.1-1.1,2.9-1.1,4,0
				l4.4,4.4C530.3,335.4,530.3,337.2,529.2,338.3z"/>
		</g>
	</g>
</g>
<g id="DESIGNED_BY_FREEPIK" class="st27">
	<g class="st28">
		<g>
			<g id="XMLID_197_">
				<g id="XMLID_216_">
					<path id="XMLID_224_" d="M385.1,463.6c-0.4,0.4-0.8,0.9-1.1,1.4l-0.5-0.2c-0.1-0.3-0.3-0.5-0.7-0.5c-0.3,0-0.6,0.3-0.5,0.7
						c0,0.3,0.3,0.6,0.7,0.5c0.1,0,0.1,0,0.2-0.1l0.4,0.2c-0.2,0.6-0.4,1.1-0.5,1.7l0.7,0.1c0.2-1.3,0.8-2.5,1.8-3.5L385.1,463.6z"
						/>
					<path id="XMLID_223_" d="M390.5,461.3c-0.2,0-0.3,0-0.5,0l-0.1-0.6c0.2-0.1,0.3-0.4,0.3-0.6c0-0.4-0.4-0.7-0.8-0.6
						c-0.4,0-0.7,0.4-0.6,0.8c0,0.3,0.2,0.5,0.4,0.6l0.1,0.6c-0.7,0.1-1.4,0.3-2.1,0.6l0.3,0.7c0.9-0.4,1.9-0.7,3-0.7
						c0.5,0,1,0.1,1.5,0.2l0.2-0.7C391.6,461.4,391.1,461.3,390.5,461.3z"/>
					<path id="XMLID_222_" d="M397.1,463.9c0.3,0,0.6-0.3,0.5-0.7c0-0.3-0.3-0.6-0.7-0.5c-0.3,0-0.5,0.3-0.5,0.6l-0.4,0.4
						c-0.4-0.4-0.9-0.8-1.4-1.1l-0.4,0.6c1.1,0.7,2,1.7,2.6,2.9l0.7-0.3c-0.2-0.6-0.6-1.1-0.9-1.5l0.4-0.3
						C397,463.9,397,463.9,397.1,463.9z"/>
					<path id="XMLID_221_" d="M390,471.5c-0.4,0-0.8,0-1.2,0c-0.9,0-1.7-0.1-2.5-0.2c-0.4-0.1-0.8-0.2-1.3-0.3
						c1,1.9,3.1,3.1,5.4,3.1c2.8,0,5.2-1.9,5.9-4.5c-0.7,0.4-1.5,0.8-2.4,1.1C392.8,471.2,391.4,471.4,390,471.5z"/>
					<path id="XMLID_217_" d="M390.5,462.8c-3.3,0-6.1,2.7-6.1,5.9c0,0.4,0,0.8,0.1,1.3c0.7,0.5,2.7,0.9,5.3,0.7
						c2.9-0.2,5.3-1,6.6-2.1c0-0.2,0-0.4,0-0.6C396.2,465,393.6,462.8,390.5,462.8z M388.4,469.3c-1,0-1.8-0.8-1.8-1.8
						s0.8-1.8,1.8-1.8c1,0,1.8,0.8,1.8,1.8S389.4,469.3,388.4,469.3z M393.1,468.4c-0.7,0-1.4-0.6-1.4-1.4s0.6-1.4,1.4-1.4
						c0.7,0,1.4,0.6,1.4,1.4S393.8,468.4,393.1,468.4z"/>
				</g>
				<path id="XMLID_214_" d="M406.5,464.7c-0.3-0.1-0.8-0.3-1.4-0.2c-0.5,0.1-0.8,0.3-0.8,1v0.9h2.2v1.7h-2.2v5.4h-1.9V468H401v-1.7
					h1.3v-0.9c0-1.7,0.9-2.8,2.6-2.8c0.6,0,1.2,0.1,1.6,0.3L406.5,464.7z"/>
				<path id="XMLID_212_" d="M411.2,468c-0.2,0-0.4,0-0.5,0c-0.9,0-1.5,0.5-1.5,1.6v3.9h-1.9v-7.1h1.9v0.8c0.4-0.7,1.1-1,2-1
					c0.4,0,0.8,0.1,1.1,0.3L411.2,468z"/>
				<path id="XMLID_209_" d="M418.8,469.9c0,0.2,0,0.5,0,0.6h-5.1c0.2,1,0.9,1.5,1.8,1.5c0.6,0,1.3-0.3,1.8-0.7l1.1,1.2
					c-0.8,0.7-1.8,1.1-3,1.1c-2.2,0-3.7-1.5-3.7-3.7c0-2.2,1.5-3.8,3.6-3.8C417.4,466.1,418.8,467.6,418.8,469.9z M413.7,469.2h3.2
					c-0.2-0.9-0.7-1.4-1.6-1.4C414.4,467.8,413.9,468.3,413.7,469.2z"/>
				<path id="XMLID_206_" d="M426.4,469.9c0,0.2,0,0.5,0,0.6h-5.1c0.2,1,0.9,1.5,1.8,1.5c0.6,0,1.3-0.3,1.8-0.7l1.1,1.2
					c-0.8,0.7-1.8,1.1-3,1.1c-2.2,0-3.7-1.5-3.7-3.7c0-2.2,1.5-3.8,3.6-3.8C425,466.1,426.4,467.6,426.4,469.9z M421.3,469.2h3.2
					c-0.2-0.9-0.7-1.4-1.6-1.4C422,467.8,421.5,468.3,421.3,469.2z"/>
				<path id="XMLID_203_" d="M434.7,469.9c0,2.1-1.5,3.8-3.5,3.8c-1,0-1.6-0.4-2.1-0.9v3.7h-1.9v-10.1h1.9v0.8c0.5-0.6,1.2-1,2.1-1
					C433.2,466.1,434.7,467.7,434.7,469.9z M429.1,469.9c0,1.1,0.7,2,1.8,2c1.1,0,1.8-0.9,1.8-2c0-1.1-0.7-2-1.8-2
					C429.8,467.9,429.1,468.8,429.1,469.9z"/>
				<path id="XMLID_200_" d="M437.8,464c0,0.7-0.5,1.2-1.2,1.2c-0.7,0-1.2-0.5-1.2-1.2c0-0.7,0.5-1.2,1.2-1.2
					C437.3,462.7,437.8,463.3,437.8,464z M437.6,473.5h-1.9v-7.1h1.9V473.5z"/>
				<path id="XMLID_198_" d="M440.8,468.9l2.7-2.5h2.4l-3.5,3.4l3.5,3.8h-2.4l-2.7-2.9v2.9h-1.9v-10.6h1.9V468.9z"/>
			</g>
			<g>
				<path d="M309.7,473.4v-1.1c-0.5,0.7-1.4,1.2-2.4,1.2c-1.8,0-3.1-1.4-3.1-3.7c0-2.2,1.3-3.7,3.1-3.7c0.9,0,1.8,0.5,2.4,1.2v-3.7
					h1.1v9.7H309.7z M309.7,471.5v-3.2c-0.4-0.6-1.2-1.1-2.1-1.1c-1.4,0-2.3,1.2-2.3,2.7c0,1.6,0.8,2.7,2.3,2.7
					C308.4,472.6,309.3,472.1,309.7,471.5z"/>
				<path d="M312.2,469.9c0-2,1.5-3.7,3.5-3.7c2.1,0,3.4,1.7,3.4,3.8v0.3h-5.7c0.1,1.3,1,2.4,2.5,2.4c0.8,0,1.6-0.3,2.2-0.9l0.5,0.7
					c-0.7,0.7-1.6,1.1-2.8,1.1C313.7,473.6,312.2,472.1,312.2,469.9z M315.6,467.1c-1.5,0-2.2,1.3-2.3,2.3h4.6
					C317.9,468.4,317.2,467.1,315.6,467.1z"/>
				<path d="M319.8,472.5l0.6-0.8c0.5,0.5,1.4,1,2.3,1c1.1,0,1.7-0.5,1.7-1.2c0-1.7-4.4-0.7-4.4-3.3c0-1.1,0.9-2,2.6-2
					c1.2,0,2,0.5,2.6,1l-0.5,0.8c-0.4-0.5-1.2-0.9-2.1-0.9c-1,0-1.6,0.5-1.6,1.1c0,1.5,4.4,0.5,4.4,3.3c0,1.2-0.9,2.1-2.8,2.1
					C321.5,473.6,320.5,473.2,319.8,472.5z"/>
				<path d="M326.7,464.6c0-0.4,0.3-0.7,0.7-0.7c0.4,0,0.7,0.3,0.7,0.7c0,0.4-0.3,0.7-0.7,0.7C327,465.3,326.7,465,326.7,464.6z
					 M326.9,473.4v-7h1.1v7H326.9z"/>
				<path d="M329.8,475.2l0.6-0.8c0.6,0.7,1.3,1,2.3,1c1.2,0,2.3-0.6,2.3-2.1v-1c-0.5,0.7-1.4,1.3-2.4,1.3c-1.8,0-3.1-1.4-3.1-3.6
					c0-2.3,1.3-3.7,3.1-3.7c0.9,0,1.8,0.5,2.4,1.2v-1.1h1.1v6.8c0,2.3-1.6,3.1-3.4,3.1C331.4,476.3,330.6,476,329.8,475.2z
					 M334.9,471.4v-3.1c-0.4-0.6-1.2-1.1-2.1-1.1c-1.4,0-2.3,1.1-2.3,2.7c0,1.5,0.8,2.7,2.3,2.7C333.6,472.5,334.5,472,334.9,471.4z
					"/>
				<path d="M342.5,473.4v-4.6c0-1.2-0.6-1.6-1.6-1.6c-0.9,0-1.7,0.5-2.1,1.1v5.1h-1.1v-7h1.1v1c0.5-0.6,1.5-1.2,2.5-1.2
					c1.5,0,2.2,0.7,2.2,2.3v4.9H342.5z"/>
				<path d="M345.1,469.9c0-2,1.5-3.7,3.5-3.7c2.1,0,3.4,1.7,3.4,3.8v0.3h-5.7c0.1,1.3,1,2.4,2.5,2.4c0.8,0,1.6-0.3,2.2-0.9l0.5,0.7
					c-0.7,0.7-1.6,1.1-2.8,1.1C346.6,473.6,345.1,472.1,345.1,469.9z M348.5,467.1c-1.5,0-2.2,1.3-2.3,2.3h4.6
					C350.8,468.4,350.1,467.1,348.5,467.1z"/>
				<path d="M358.4,473.4v-1.1c-0.5,0.7-1.4,1.2-2.4,1.2c-1.8,0-3.1-1.4-3.1-3.7c0-2.2,1.3-3.7,3.1-3.7c0.9,0,1.8,0.5,2.4,1.2v-3.7
					h1.1v9.7H358.4z M358.4,471.5v-3.2c-0.4-0.6-1.2-1.1-2.1-1.1c-1.4,0-2.3,1.2-2.3,2.7c0,1.6,0.8,2.7,2.3,2.7
					C357.2,472.6,358,472.1,358.4,471.5z"/>
				<path d="M364.7,473.4v-9.7h1.1v3.7c0.6-0.8,1.4-1.2,2.4-1.2c1.8,0,3.1,1.5,3.1,3.7c0,2.3-1.3,3.7-3.1,3.7c-1,0-1.9-0.5-2.4-1.2
					v1.1H364.7z M367.9,472.6c1.4,0,2.3-1.2,2.3-2.7c0-1.6-0.8-2.7-2.3-2.7c-0.9,0-1.7,0.5-2.1,1.1v3.2
					C366.2,472.1,367.1,472.6,367.9,472.6z"/>
				<path d="M372.5,475.2c0.2,0.1,0.4,0.1,0.6,0.1c0.5,0,0.8-0.2,1.1-0.7l0.5-1.1l-2.9-7.1h1.2l2.3,5.8l2.3-5.8h1.2l-3.5,8.5
					c-0.4,1-1.1,1.4-2.1,1.4c-0.2,0-0.6,0-0.8-0.1L372.5,475.2z"/>
			</g>
		</g>
	</g>
</g>
</svg>
