<?xml version="1.0" encoding="utf-8"?>
<!-- Generator: Adobe Illustrator 26.1.0, SVG Export Plug-In . SVG Version: 6.00 Build 0)  -->
<svg version="1.1" xmlns="http://www.w3.org/2000/svg" xmlns:xlink="http://www.w3.org/1999/xlink" x="0px" y="0px"
	 viewBox="0 0 500 500" style="enable-background:new 0 0 500 500;" xml:space="preserve">
<style type="text/css">
	.st0{opacity:0.41;}
	.st1{fill:#E1E2FE;}
	.st2{opacity:0.31;}
	.st3{opacity:0.47;fill:#ECF1F7;}
	.st4{opacity:0.47;fill:#E1E2FE;}
	.st5{opacity:0.81;fill:#E1E2FE;}
	.st6{opacity:0.58;fill:#3E479B;}
	.st7{opacity:0.58;fill:#EF929C;}
	.st8{opacity:0.66;}
	.st9{fill:#FFFFFF;}
	.st10{opacity:0.81;}
	.st11{opacity:0.66;fill:#FFFFFF;}
	.st12{opacity:0.14;fill:#3E479B;}
	.st13{fill:#F7A9B4;}
	.st14{opacity:0.39;fill:#F7A9B4;}
	.st15{fill:#599AF2;}
	.st16{opacity:7.000000e-02;fill:#ECF1F7;}
	.st17{fill:#3E479B;}
	.st18{opacity:0.74;fill:#6D6CD4;}
	.st19{opacity:0.39;fill:#6D6CD4;}
	.st20{opacity:0.39;fill:#3E479B;}
	.st21{fill:#6161B5;}
	.st22{opacity:0.28;}
	.st23{opacity:0.21;fill:#FFFFFF;}
	.st24{opacity:0.76;fill:#FFFFFF;}
	.st25{fill:none;}
	.st26{fill:#4C65BA;}
	.st27{opacity:0.43;fill:#3E479B;}
	.st28{fill:#F28393;}
	.st29{opacity:0.12;fill:#FFFFFF;}
	.st30{display:none;}
	.st31{display:inline;}
</style>
<g id="BACKGROUND">
	<g>
		<g>
			<g class="st0">
				<g>
					<g>
						<path class="st1" d="M479.2,298.5c0.4-7.4,0.2-14.8-0.6-22.1c-3.9-34.4-21.6-66.9-47.6-89.9c-9.3-8.2-19.8-15.5-25.9-26.3
							c-10.2-18.2-9.4-39.1-22-57c-12.6-18-31.1-32-51.8-39.2c-61.9-21.5-148.6,13.5-140.8,88.1c0,0.3,0.1,0.7,0.1,1.1
							c1,15.5-11.1,28.5-26.6,28.9c-57.1,1.4-106.3,45.4-116.8,101.2c-6.8,35.9,4.3,75.2,30.6,100.6c19.6,18.9,45.9,29.4,72.2,36.5
							c52.7,14.3,108.2,17.3,162.6,11.9c50.9-5.1,104.6-19.8,137.5-58.9C467.6,352.5,477.6,325.7,479.2,298.5z"/>
					</g>
				</g>
			</g>
			<g class="st2">
				
					<ellipse transform="matrix(0.1595 -0.9872 0.9872 0.1595 138.0121 252.876)" class="st1" cx="217.5" cy="45.4" rx="13.3" ry="13.3"/>
			</g>
			<g class="st2">
				<circle class="st1" cx="397.1" cy="37.3" r="6.9"/>
			</g>
			<g class="st2">
				<ellipse transform="matrix(0.242 -0.9703 0.9703 0.242 44.5975 207.3737)" class="st1" cx="155" cy="75.1" rx="9.2" ry="9.2"/>
			</g>
			<g class="st2">
				<circle class="st1" cx="49" cy="408.5" r="20.9"/>
			</g>
		</g>
	</g>
	<g>
		<g>
			<path class="st3" d="M473.5,82c6-11.6,1.4-25.9-10.2-31.8c-11.6-6-34-5.5-39.9,6.1c-6,11.6,11.9,21.6,19.2,32.4
				C452.7,103.7,467.5,93.6,473.5,82z"/>
			<path class="st4" d="M422.7,439.1c8.4,5.4,19.6,3,25.1-5.4s6.8-25.5-1.6-30.9c-8.4-5.4-17.4,7.5-26.2,12.2
				C407.7,421.6,414.3,433.7,422.7,439.1z"/>
			<path class="st4" d="M79.5,28.6c-9.2-8.6-23.7-8.1-32.3,1.2c-8.6,9.2-14,30.1-4.8,38.7c9.2,8.6,23.2-5.4,35.2-9.4
				C94.4,53.7,88.8,37.2,79.5,28.6z"/>
		</g>
		<g>
			<path class="st4" d="M28.6,128.5c-8.2,17.9-10.5,38.5-6.5,57.8c4.7,22.7,18.8,40.1,13.9,64.3c-3,14.7-3.7,28.4-5.2,43
				c-3.1,29.9,16.3,56.3,40.4,70.6c19.6,11.6,42.5,15.9,65.1,15.6c20.3-0.3,40.5-4,60.1-9.1c18.9-4.8,37.4-11.2,57.3-9.2
				c16.5,1.7,31.4,8.8,46.7,14.1c36.7,12.7,81.1,14.5,114.7-4.8c21.5-12.4,36.6-32.6,43.3-54.2c5.3-17.3,6-33.5,2-51.2
				c-4.1-18.1-11.1-36.4-8.9-55.3c1.5-13.2,7.5-25.9,6.4-39.1c-0.7-8.8-4.6-17-9.3-24.5c-17.3-27.1-46.2-45.3-76.7-55.3
				c-28.8-9.4-58.4-16.3-88.4-14c-61.9,4.7-74.6-5.1-137.9-18.7C104.6,49.7,58.9,80.8,35,116.9C32.5,120.6,30.4,124.5,28.6,128.5z"
				/>
			<g>
				<path class="st5" d="M71.2,156.4c-1.3,14.3,3.5,29-0.5,43.2c-4.8,16.9-18.8,29.6-24.5,46.3c-8.4,24.6-8,52.1,2.2,76.1
					c4.9,11.5,12.1,22.3,21.9,29.7c15.1,11.4,35,13.9,53.6,12.5c27.8-2.2,57.1-14.2,85-10.9c15.4,1.8,20.1,18.5,28.1,29.5
					c9,12.4,21.3,22.2,34.8,28.7c25,12,54.9,13.1,80.4,2.3c27.2-11.6,51-39.9,49.4-71.9c-0.7-14.8-6.7-29.5-3.9-44.1
					c3.4-18.3,17.2-34.9,27.2-49.8c11-16.4,17.7-36,19-56c0-0.2,0-0.5,0-0.7c2-34.5-19.7-66-52.6-76.8c0,0-69.9-23-69.9-23
					C250.6,68,179.8,68.8,114.6,103c-14.1,7.4-37.1,29.5-41.8,44.7C71.9,150.5,71.4,153.4,71.2,156.4z"/>
			</g>
		</g>
	</g>
	<circle class="st6" cx="467.7" cy="381.6" r="4.5"/>
	<circle class="st6" cx="259.8" cy="30.9" r="4.5"/>
	<circle class="st6" cx="97.2" cy="423.1" r="4.5"/>
	<circle class="st7" cx="381.2" cy="442" r="3.5"/>
	<circle class="st6" cx="77.3" cy="107.5" r="1.5"/>
	<path class="st7" d="M396.9,62.8c-0.6,2.9-3.5,4.8-6.4,4.2c-2.9-0.6-4.8-3.5-4.2-6.4c0.6-2.9,3.5-4.8,6.4-4.2
		C395.6,57,397.5,59.8,396.9,62.8z"/>
	<path class="st7" d="M108.1,37.9c-0.2,1.1-1.4,1.9-2.5,1.6c-1.1-0.2-1.9-1.4-1.6-2.5c0.2-1.1,1.4-1.9,2.5-1.6
		C107.6,35.7,108.3,36.8,108.1,37.9z"/>
	<path class="st6" d="M445.8,29c-0.2,1-1.2,1.6-2.1,1.4s-1.6-1.2-1.4-2.1c0.2-1,1.2-1.6,2.1-1.4C445.4,27.1,446,28,445.8,29z"/>
	<path class="st6" d="M64.8,458.6c-0.2,1-1.2,1.6-2.1,1.4s-1.6-1.2-1.4-2.1c0.2-1,1.2-1.6,2.1-1.4C64.4,456.7,65,457.7,64.8,458.6z"
		/>
</g>
<g id="OBJECTS">
	<g>
		<g class="st8">
			<g>
				<g>
					<g>
						<path class="st9" d="M194.4,189.8l-8-0.6c-0.6-6-2.5-11.6-5.4-16.6l6.1-5.2c3.1-2.6,3.4-7.3,0.8-10.3
							c-2.6-3.1-7.3-3.4-10.3-0.8l-6.1,5.2c-4.5-3.7-9.8-6.4-15.6-7.9l0.6-8c0.3-4-2.7-7.5-6.7-7.9l0,0c-4-0.3-7.5,2.7-7.9,6.7
							l-0.6,8c-6,0.6-11.6,2.5-16.6,5.4l-5.2-6.1c-2.6-3.1-7.3-3.4-10.3-0.8c-3.1,2.6-3.4,7.3-0.8,10.3l5.2,6.1
							c-3.7,4.5-6.4,9.8-7.9,15.6l-8-0.6c-4-0.3-7.5,2.7-7.9,6.7l0,0c-0.3,4,2.7,7.5,6.7,7.9l8,0.6c0.6,6,2.5,11.6,5.4,16.6
							l-6.1,5.2c-3.1,2.6-3.4,7.3-0.8,10.3c2.6,3.1,7.3,3.4,10.3,0.8l6.1-5.2c4.5,3.7,9.8,6.4,15.6,7.9l-0.6,8
							c-0.3,4,2.7,7.5,6.7,7.9l0,0c4,0.3,7.5-2.7,7.9-6.7l0.6-8c6-0.6,11.6-2.5,16.6-5.4l5.2,6.1c2.6,3.1,7.3,3.4,10.3,0.8
							c3.1-2.6,3.4-7.3,0.8-10.3l-5.2-6.1c3.7-4.5,6.4-9.8,7.9-15.6l8,0.6c4,0.3,7.5-2.7,7.9-6.7l0,0
							C201.5,193.6,198.4,190.1,194.4,189.8z M143.2,223.1c-16.4-1.3-28.7-15.6-27.5-32c1.3-16.4,15.6-28.7,32-27.5
							c16.4,1.3,28.7,15.6,27.5,32S159.6,224.3,143.2,223.1z"/>
					</g>
				</g>
				<g>
					<g>
						<path class="st9" d="M364.4,414.2c-1,0-1.9-0.2-2.8-0.7c-1.4-0.8-2.5-2-3-3.6l-1.4-4.5c-3.7,0.4-7.4,0.1-10.9-0.9l-2.2,4.2
							c-1.5,3-5.2,4.2-8.2,2.6c-1.4-0.8-2.5-2-3-3.6c-0.5-1.6-0.3-3.2,0.4-4.7l2.2-4.2c-2.9-2.3-5.2-5.2-7.1-8.4l-4.5,1.4
							c-3.2,1-6.6-0.8-7.7-4c-0.5-1.6-0.3-3.2,0.4-4.7c0.8-1.4,2-2.5,3.6-3l4.5-1.4c-0.4-3.7-0.1-7.4,0.9-10.9l-4.2-2.2
							c-1.4-0.8-2.5-2-3-3.6c-0.5-1.6-0.3-3.2,0.4-4.7c0.8-1.4,2-2.5,3.6-3c1.6-0.5,3.2-0.3,4.7,0.4l4.2,2.2
							c2.3-2.9,5.2-5.2,8.4-7.1l-1.4-4.5c-1-3.2,0.8-6.6,4-7.7c1.6-0.5,3.2-0.3,4.7,0.4c1.4,0.8,2.5,2,3,3.6l1.4,4.5
							c3.7-0.4,7.4-0.1,10.9,0.9l2.2-4.2c1.5-3,5.2-4.2,8.2-2.6c3,1.5,4.2,5.2,2.6,8.2l-2.2,4.2c2.9,2.3,5.2,5.2,7.1,8.4l4.5-1.4
							c1.6-0.5,3.2-0.3,4.7,0.4c1.4,0.8,2.5,2,3,3.6c1,3.2-0.8,6.6-4,7.7l-4.5,1.4c0.4,3.7,0.1,7.4-0.9,10.9l4.2,2.2
							c3,1.5,4.2,5.2,2.6,8.2c-0.8,1.4-2,2.5-3.6,3c-1.6,0.5-3.2,0.3-4.7-0.4l-4.2-2.2c-2.3,2.9-5.2,5.2-8.4,7.1l1.4,4.5
							c0.5,1.6,0.3,3.2-0.4,4.7c-0.8,1.4-2,2.5-3.6,3C365.7,414.1,365.1,414.2,364.4,414.2z M358.6,403.2l1.9,6.1c0.3,1,1,1.9,2,2.4
							c1,0.5,2.1,0.6,3.1,0.3c1-0.3,1.9-1,2.4-2c0.5-1,0.6-2.1,0.3-3.1l-1.9-6.1l0.7-0.4c3.5-1.9,6.6-4.4,9-7.6l0.5-0.7l5.7,2.9
							c1,0.5,2.1,0.6,3.1,0.3c1-0.3,1.9-1,2.4-2c1-2,0.3-4.5-1.8-5.5l-5.7-2.9l0.2-0.8c1.2-3.8,1.5-7.8,1-11.7l-0.1-0.8l6.1-1.9
							c2.2-0.7,3.4-3,2.7-5.1c-0.3-1-1-1.9-2-2.4c-1-0.5-2.1-0.6-3.1-0.3l-6.1,1.9l-0.4-0.7c-1.9-3.5-4.4-6.6-7.6-9l-0.7-0.5
							l2.9-5.7c1-2,0.3-4.5-1.8-5.5c-2-1-4.5-0.3-5.5,1.8l-2.9,5.7l-0.8-0.2c-3.8-1.2-7.8-1.5-11.7-1l-0.8,0.1l-1.9-6.1
							c-0.3-1-1-1.9-2-2.4c-1-0.5-2.1-0.6-3.1-0.3c-2.2,0.7-3.4,3-2.7,5.1l1.9,6.1l-0.7,0.4c-3.5,1.9-6.6,4.4-9,7.6l-0.5,0.7
							l-5.7-2.9c-1-0.5-2.1-0.6-3.1-0.3c-1,0.3-1.9,1-2.4,2c-0.5,1-0.6,2.1-0.3,3.1c0.3,1,1,1.9,2,2.4l5.7,2.9l-0.2,0.8
							c-1.2,3.8-1.5,7.8-1,11.7l0.1,0.8l-6.1,1.9c-1,0.3-1.9,1-2.4,2c-0.5,1-0.6,2.1-0.3,3.1c0.7,2.2,3,3.4,5.1,2.7l6.1-1.9l0.4,0.7
							c1.9,3.5,4.4,6.6,7.6,9l0.7,0.5L335,404c-0.5,1-0.6,2.1-0.3,3.1c0.3,1,1,1.9,2,2.4c2,1,4.5,0.3,5.5-1.8l2.9-5.7l0.8,0.2
							c3.8,1.2,7.8,1.5,11.7,1L358.6,403.2z M354.2,397.6c-3.4,0-6.9-0.8-10-2.5c-5.2-2.7-9-7.2-10.7-12.8
							c-1.8-5.5-1.2-11.4,1.4-16.6c2.7-5.2,7.2-9,12.8-10.7c5.5-1.8,11.4-1.2,16.6,1.4c5.2,2.7,9,7.2,10.7,12.8
							c1.8,5.5,1.2,11.4-1.4,16.6c-2.7,5.2-7.2,9-12.8,10.7C358.7,397.3,356.4,397.6,354.2,397.6z M354.3,356.1c-2,0-4,0.3-6,0.9
							c-5,1.6-9.1,5.1-11.6,9.7c-2.4,4.7-2.9,10-1.3,15.1c1.6,5,5.1,9.1,9.7,11.6c4.7,2.4,10,2.9,15.1,1.3c5-1.6,9.1-5.1,11.6-9.7
							c2.4-4.7,2.9-10,1.3-15.1c-1.6-5-5.1-9.1-9.7-11.6C360.5,356.8,357.4,356.1,354.3,356.1z"/>
					</g>
				</g>
				<g>
					<g>
						<path class="st9" d="M417,376.8c-0.4,0-0.8,0-1.1-0.1c-4.3-0.6-7.3-4.6-6.6-8.9l1-6.6c-4.8-1.7-9.2-4.3-13-7.8l-5.3,4
							c-1.7,1.3-3.7,1.8-5.8,1.5c-2.1-0.3-3.9-1.4-5.2-3.1c-2.6-3.5-1.9-8.4,1.6-11l5.3-4c-2.2-4.6-3.5-9.6-3.7-14.7l-6.6-1
							c-4.3-0.6-7.3-4.6-6.6-8.9c0.3-2.1,1.4-3.9,3.1-5.2c1.7-1.3,3.8-1.8,5.8-1.5l6.6,1c1.7-4.8,4.3-9.2,7.8-13l-4-5.3
							c-1.3-1.7-1.8-3.8-1.5-5.8c0.3-2.1,1.4-3.9,3.1-5.2c1.7-1.3,3.7-1.8,5.8-1.5c2.1,0.3,3.9,1.4,5.2,3.1l4,5.3
							c4.6-2.2,9.6-3.5,14.7-3.7l1-6.6c0.6-4.3,4.6-7.3,8.9-6.6c2.1,0.3,3.9,1.4,5.2,3.1c1.3,1.7,1.8,3.8,1.5,5.8l-1,6.6
							c4.8,1.7,9.2,4.3,13,7.8l5.3-4c3.5-2.6,8.4-1.9,11,1.6c2.6,3.5,1.9,8.4-1.6,11l-5.3,4c2.2,4.6,3.5,9.6,3.7,14.7l6.6,1
							c4.3,0.6,7.3,4.6,6.6,8.9c-0.6,4.3-4.6,7.3-8.9,6.6l-6.6-1c-1.7,4.8-4.3,9.2-7.8,13l4,5.3c2.6,3.5,1.9,8.4-1.6,11
							c-1.7,1.3-3.8,1.8-5.8,1.5c-2.1-0.3-3.9-1.4-5.2-3.1l-4-5.3c-4.6,2.2-9.6,3.5-14.7,3.7l-1,6.6
							C424.2,374,420.8,376.8,417,376.8z M397.2,350.9l0.6,0.6c4,3.7,8.6,6.4,13.7,8.2l0.8,0.3l-1.2,8.2c-0.5,3.2,1.8,6.2,5,6.6
							c3.2,0.5,6.2-1.8,6.6-5l1.2-8.2l0.8,0c5.4-0.2,10.6-1.5,15.5-3.9l0.7-0.4l5,6.7c0.9,1.3,2.3,2.1,3.8,2.3
							c1.5,0.2,3.1-0.2,4.3-1.1c2.6-1.9,3.1-5.6,1.2-8.2l-5-6.7l0.6-0.6c3.7-4,6.4-8.6,8.2-13.7l0.3-0.8l8.2,1.2
							c3.2,0.5,6.2-1.8,6.6-5c0.5-3.2-1.8-6.2-5-6.6l-8.2-1.2l0-0.8c-0.2-5.4-1.5-10.6-3.9-15.5l-0.4-0.7l6.7-5
							c2.6-1.9,3.1-5.6,1.2-8.2c-0.9-1.3-2.3-2.1-3.8-2.3c-1.5-0.2-3.1,0.2-4.3,1.1h0l-6.7,5l-0.6-0.6c-4-3.7-8.6-6.5-13.7-8.2
							l-0.8-0.3l1.2-8.2c0.2-1.5-0.2-3.1-1.1-4.3c-0.9-1.3-2.3-2.1-3.8-2.3c-3.2-0.5-6.2,1.8-6.6,5l-1.2,8.2l-0.8,0
							c-5.4,0.2-10.6,1.5-15.5,3.9l-0.7,0.4l-5-6.7c-0.9-1.3-2.3-2.1-3.8-2.3c-1.5-0.2-3.1,0.2-4.3,1.1c-1.3,0.9-2.1,2.3-2.3,3.8
							c-0.2,1.5,0.2,3.1,1.1,4.3l5,6.7l-0.6,0.6c-3.7,4-6.5,8.6-8.2,13.7l-0.3,0.8l-8.2-1.2c-1.5-0.2-3.1,0.2-4.3,1.1
							c-1.3,0.9-2.1,2.3-2.3,3.8c-0.5,3.2,1.8,6.2,5,6.6l8.2,1.2l0,0.8c0.2,5.4,1.5,10.6,3.9,15.5l0.4,0.7l-6.7,5
							c-1.3,0.9-2.1,2.3-2.3,3.8c-0.2,1.5,0.2,3.1,1.1,4.3c0.9,1.3,2.3,2.1,3.8,2.3c1.5,0.2,3.1-0.2,4.3-1.1L397.2,350.9z
							 M423.5,352.9c-8.8,0-17.5-4-23.2-11.6c-9.5-12.8-6.9-30.9,5.9-40.5c6.2-4.6,13.8-6.6,21.5-5.4c7.6,1.1,14.4,5.1,19,11.3
							c4.6,6.2,6.6,13.8,5.4,21.5c-1.1,7.6-5.1,14.4-11.3,19l0,0C435.6,351.1,429.5,352.9,423.5,352.9z M423.4,297.1
							c-5.8,0-11.3,1.8-16,5.4c-11.9,8.9-14.4,25.8-5.5,37.7c8.9,11.9,25.8,14.3,37.7,5.5l0,0c5.8-4.3,9.5-10.6,10.5-17.7
							c1-7.1-0.8-14.2-5.1-20c-4.3-5.8-10.6-9.5-17.7-10.5C426,297.2,424.7,297.1,423.4,297.1z M440.2,346.4L440.2,346.4
							L440.2,346.4z"/>
					</g>
				</g>
			</g>
		</g>
		<g>
			<g class="st10">
				<path class="st9" d="M287.7,380.9h-20.5c-0.6,0-1-0.4-1-1c0-0.6,0.4-1,1-1h20.5c0.6,0,1,0.4,1,1
					C288.7,380.4,288.2,380.9,287.7,380.9z"/>
				<path class="st9" d="M287.7,402.2h-20.5c-0.6,0-1-0.4-1-1c0-0.6,0.4-1,1-1h20.5c0.6,0,1,0.4,1,1
					C288.7,401.8,288.2,402.2,287.7,402.2z"/>
				<g>
					<g>
						<g>
							<path class="st9" d="M303.2,423.8H176.3c-1.5,0-2.7-1.2-2.7-2.7v-65.8c0-1.5,1.2-2.7,2.7-2.7h126.9c1.5,0,2.7,1.2,2.7,2.7
								v65.8C305.9,422.6,304.7,423.8,303.2,423.8z M176.3,354.5c-0.4,0-0.7,0.3-0.7,0.7v65.8c0,0.4,0.3,0.7,0.7,0.7h126.9
								c0.4,0,0.7-0.3,0.7-0.7v-65.8c0-0.4-0.3-0.7-0.7-0.7H176.3z"/>
							<path class="st11" d="M303.2,423.8H176.3c-1.5,0-2.7-1.2-2.7-2.7v-65.8c0-1.5,1.2-2.7,2.7-2.7h126.9c1.5,0,2.7,1.2,2.7,2.7
								v65.8C305.9,422.6,304.7,423.8,303.2,423.8z M176.3,354.5c-0.4,0-0.7,0.3-0.7,0.7v65.8c0,0.4,0.3,0.7,0.7,0.7h126.9
								c0.4,0,0.7-0.3,0.7-0.7v-65.8c0-0.4-0.3-0.7-0.7-0.7H176.3z"/>
						</g>
					</g>
					<path class="st9" d="M287.7,370.5h-97.9c-0.6,0-1-0.4-1-1c0-0.6,0.4-1,1-1h97.9c0.6,0,1,0.4,1,1
						C288.7,370.1,288.2,370.5,287.7,370.5z"/>
					<path class="st9" d="M287.7,391.2h-97.9c-0.6,0-1-0.4-1-1c0-0.6,0.4-1,1-1h97.9c0.6,0,1,0.4,1,1
						C288.7,390.8,288.2,391.2,287.7,391.2z"/>
					<path class="st9" d="M242.5,380.9h-52.8c-0.6,0-1-0.4-1-1c0-0.6,0.4-1,1-1h52.8c0.6,0,1,0.4,1,1
						C243.5,380.4,243.1,380.9,242.5,380.9z"/>
					<path class="st9" d="M242.5,402.2h-52.8c-0.6,0-1-0.4-1-1c0-0.6,0.4-1,1-1h52.8c0.6,0,1,0.4,1,1
						C243.5,401.8,243.1,402.2,242.5,402.2z"/>
					<path class="st9" d="M225.4,412.1h-35.6c-0.6,0-1-0.4-1-1c0-0.6,0.4-1,1-1h35.6c0.6,0,1,0.4,1,1
						C226.4,411.7,225.9,412.1,225.4,412.1z"/>
				</g>
			</g>
			<g class="st10">
				<path class="st9" d="M91.1,316.8H68c-0.6,0-1-0.4-1-1c0-0.6,0.4-1,1-1h23.1c0.6,0,1,0.4,1,1C92.1,316.4,91.7,316.8,91.1,316.8z"
					/>
				<path class="st9" d="M91.1,292.8H68c-0.6,0-1-0.4-1-1c0-0.6,0.4-1,1-1h23.1c0.6,0,1,0.4,1,1C92.1,292.4,91.7,292.8,91.1,292.8z"
					/>
				<g>
					<g>
						<g>
							<path class="st9" d="M193.4,346.5h-143c-1.5,0-2.7-1.2-2.7-2.7v-74.4c0-1.5,1.2-2.7,2.7-2.7h143c1.5,0,2.7,1.2,2.7,2.7v74.4
								C196.1,345.2,194.9,346.5,193.4,346.5z M50.4,268.6c-0.4,0-0.7,0.3-0.7,0.7v74.4c0,0.4,0.3,0.7,0.7,0.7h143
								c0.4,0,0.7-0.3,0.7-0.7v-74.4c0-0.4-0.3-0.7-0.7-0.7H50.4z"/>
							<path class="st11" d="M193.4,346.5h-143c-1.5,0-2.7-1.2-2.7-2.7v-74.4c0-1.5,1.2-2.7,2.7-2.7h143c1.5,0,2.7,1.2,2.7,2.7v74.4
								C196.1,345.2,194.9,346.5,193.4,346.5z M50.4,268.6c-0.4,0-0.7,0.3-0.7,0.7v74.4c0,0.4,0.3,0.7,0.7,0.7h143
								c0.4,0,0.7-0.3,0.7-0.7v-74.4c0-0.4-0.3-0.7-0.7-0.7H50.4z"/>
						</g>
					</g>
					<path class="st9" d="M178.1,328.5H68c-0.6,0-1-0.4-1-1c0-0.6,0.4-1,1-1h110c0.6,0,1,0.4,1,1C179.1,328,178.6,328.5,178.1,328.5
						z"/>
					<path class="st9" d="M178.1,305.2H68c-0.6,0-1-0.4-1-1s0.4-1,1-1h110c0.6,0,1,0.4,1,1S178.6,305.2,178.1,305.2z"/>
					<path class="st9" d="M178.1,316.8h-59.3c-0.6,0-1-0.4-1-1c0-0.6,0.4-1,1-1h59.3c0.6,0,1,0.4,1,1
						C179.1,316.4,178.6,316.8,178.1,316.8z"/>
					<path class="st9" d="M178.1,292.8h-59.3c-0.6,0-1-0.4-1-1c0-0.6,0.4-1,1-1h59.3c0.6,0,1,0.4,1,1
						C179.1,292.4,178.6,292.8,178.1,292.8z"/>
					<path class="st9" d="M178.1,281.7h-40c-0.6,0-1-0.4-1-1c0-0.6,0.4-1,1-1h40c0.6,0,1,0.4,1,1
						C179.1,281.3,178.6,281.7,178.1,281.7z"/>
				</g>
			</g>
		</g>
	</g>
	<g>
		<g>
			<path class="st12" d="M360,386.9L250.6,322c-0.9-0.5-1.2-1.7-0.6-2.5l88.3-149c0.5-0.9,1.7-1.2,2.5-0.6l109.4,64.9
				c0.9,0.5,1.2,1.7,0.6,2.5l-88.3,149C362,387.1,360.9,387.4,360,386.9z"/>
			<path class="st13" d="M357.1,380.9L247.7,316c-0.9-0.5-1.2-1.7-0.6-2.5l88.3-149c0.5-0.9,1.7-1.2,2.5-0.6l109.4,64.9
				c0.9,0.5,1.2,1.7,0.6,2.5l-88.3,149C359.2,381.1,358,381.4,357.1,380.9z"/>
		</g>
		<g>
			<path class="st12" d="M388.6,379.1L263.5,356c-1-0.2-1.7-1.2-1.5-2.2l31.4-170.3c0.2-1,1.2-1.7,2.2-1.5l125.1,23.1
				c1,0.2,1.7,1.2,1.5,2.2l-31.4,170.3C390.5,378.6,389.6,379.3,388.6,379.1z"/>
			
				<rect x="250.9" y="210.3" transform="matrix(0.1813 -0.9834 0.9834 0.1813 6.6659 559.5388)" class="st9" width="176.9" height="130.9"/>
			<path class="st14" d="M385.9,374.3l-125.1-23.1c-1-0.2-1.7-1.2-1.5-2.2l31.4-170.3c0.2-1,1.2-1.7,2.2-1.5L418,200.3
				c1,0.2,1.7,1.2,1.5,2.2l-31.4,170.3C387.9,373.8,386.9,374.5,385.9,374.3z"/>
			<path class="st9" d="M400.3,221.1c-0.1,0-0.1,0-0.2,0l-31.3-5.8c-0.5-0.1-0.9-0.6-0.8-1.2c0.1-0.5,0.6-0.9,1.2-0.8l31.3,5.8
				c0.5,0.1,0.9,0.6,0.8,1.2C401.2,220.8,400.8,221.1,400.3,221.1z"/>
			<path class="st9" d="M398.5,231.1c-0.1,0-0.1,0-0.2,0l-31.3-5.8c-0.5-0.1-0.9-0.6-0.8-1.2c0.1-0.5,0.6-0.9,1.2-0.8l31.3,5.8
				c0.5,0.1,0.9,0.6,0.8,1.2C399.4,230.8,398.9,231.1,398.5,231.1z"/>
			<path class="st9" d="M396.5,242c-0.1,0-0.1,0-0.2,0l-31.3-5.8c-0.5-0.1-0.9-0.6-0.8-1.2c0.1-0.5,0.6-0.9,1.2-0.8l31.3,5.8
				c0.5,0.1,0.9,0.6,0.8,1.2C397.4,241.7,396.9,242,396.5,242z"/>
			<g>
				<path class="st12" d="M348,251.3l-53.7-9.9c-1.1-0.2-1.8-1.2-1.6-2.3l10.6-57.7c0.2-1.1,1.2-1.8,2.3-1.6l53.7,9.9
					c1.1,0.2,1.8,1.2,1.6,2.3l-10.6,57.7C350.1,250.7,349.1,251.5,348,251.3z"/>
				<path class="st15" d="M346,247.9l-51.1-9.4c-1.1-0.2-1.8-1.2-1.6-2.3l10.1-54.6c0.2-1.1,1.2-1.8,2.3-1.6l51.1,9.4
					c1.1,0.2,1.8,1.2,1.6,2.3l-10.1,54.6C348.2,247.4,347.1,248.1,346,247.9z"/>
				<path class="st16" d="M357.5,196.8l-55.1-10.2l1-5.2c0.2-1.1,1.2-1.8,2.3-1.6l51.3,9.5c1,0.2,1.7,1.2,1.5,2.2L357.5,196.8z"/>
				<path class="st17" d="M317.8,213.8c-0.4,0-0.8,0-1.2-0.1l-0.8-0.1c-4-0.7-6.7-4.6-6-8.7l1.9-10.4c0.2-0.8,0.9-1.4,1.7-1.2
					c0.8,0.1,1.4,0.9,1.2,1.7l-1.9,10.4c-0.4,2.4,1.2,4.8,3.6,5.2l0.8,0.1c1.9,0.4,3.7-0.9,4-2.8l4.9-26.4c0.4-1.9-0.9-3.8-2.9-4.2
					l-1.3-0.2c-2.1-0.4-4.1,1-4.4,3.1l-0.1,0.7c-0.2,0.8-0.9,1.4-1.7,1.2c-0.8-0.1-1.4-0.9-1.2-1.7l0.1-0.7c0.7-3.7,4.2-6.1,7.9-5.5
					l1.3,0.2c3.6,0.7,5.9,4.1,5.3,7.7l-4.9,26.4C323.6,211.7,320.9,213.8,317.8,213.8z"/>
				<path class="st9" d="M323,191.7C323,191.7,323,191.7,323,191.7l-20.1-3.7c-0.3,0-0.5-0.3-0.4-0.6c0.1-0.3,0.3-0.5,0.6-0.4
					l20,3.7c0.3,0,0.5,0.3,0.4,0.6C323.5,191.5,323.3,191.7,323,191.7z"/>
			</g>
			<g>
				<path class="st9" d="M384.1,295c-0.1,0-0.1,0-0.2,0l-95.7-17.6c-0.5-0.1-0.9-0.6-0.8-1.2c0.1-0.5,0.6-0.9,1.2-0.8l95.7,17.6
					c0.5,0.1,0.9,0.6,0.8,1.2C385,294.7,384.6,295,384.1,295z"/>
				<path class="st9" d="M377.3,332.1c-0.1,0-0.1,0-0.2,0l-95.7-17.6c-0.5-0.1-0.9-0.6-0.8-1.2c0.1-0.5,0.6-0.9,1.2-0.8l95.7,17.6
					c0.5,0.1,0.9,0.6,0.8,1.2C378.2,331.8,377.8,332.1,377.3,332.1z"/>
				<path class="st9" d="M330.3,304.3c-0.1,0-0.1,0-0.2,0l-45.2-8.3c-0.5-0.1-0.9-0.6-0.8-1.2c0.1-0.5,0.6-0.9,1.2-0.8l45.2,8.3
					c0.5,0.1,0.9,0.6,0.8,1.2C331.2,303.9,330.7,304.3,330.3,304.3z"/>
				<path class="st9" d="M336.5,270.4c-0.1,0-0.1,0-0.2,0l-45.2-8.3c-0.5-0.1-0.9-0.6-0.8-1.2c0.1-0.5,0.6-0.9,1.2-0.8l45.2,8.3
					c0.5,0.1,0.9,0.6,0.8,1.2C337.4,270.1,337,270.4,336.5,270.4z"/>
				<path class="st9" d="M380.8,313.4c-0.1,0-0.1,0-0.2,0l-43.1-7.9c-0.5-0.1-0.9-0.6-0.8-1.2c0.1-0.5,0.6-0.9,1.2-0.8l43.1,7.9
					c0.5,0.1,0.9,0.6,0.8,1.2C381.6,313.1,381.2,313.4,380.8,313.4z"/>
			</g>
		</g>
		<g>
			<path class="st15" d="M370.6,116.9h-53.2c-1.8,0-3.3-1.5-3.3-3.3V95.7c0-1.8,1.5-3.3,3.3-3.3h53.2c1.8,0,3.3,1.5,3.3,3.3v17.8
				C374,115.4,372.5,116.9,370.6,116.9z"/>
			<path class="st13" d="M410.7,143.5h-74.4c-1.8,0-3.3-1.5-3.3-3.3v-26.5c0-1.8,1.5-3.3,3.3-3.3h74.4c1.8,0,3.3,1.5,3.3,3.3v26.5
				C414,142,412.5,143.5,410.7,143.5z"/>
			<g>
				<g>
					<g>
						<path class="st9" d="M352.8,136.5h82.4c2.5,0,4.5,2,4.5,4.5v25.2c0,2.5-2,4.5-4.5,4.5h-82.4c-2.5,0-4.5-2-4.5-4.5V141
							C348.2,138.5,350.3,136.5,352.8,136.5z"/>
						<path class="st18" d="M352.8,136.5h82.4c2.5,0,4.5,2,4.5,4.5v25.2c0,2.5-2,4.5-4.5,4.5h-82.4c-2.5,0-4.5-2-4.5-4.5V141
							C348.2,138.5,350.3,136.5,352.8,136.5z"/>
					</g>
					<g>
						<g>
							<path class="st9" d="M410.6,157.7c-2.2,0-4-1.8-4-4c0-2.2,1.8-4,4-4s4,1.8,4,4C414.6,155.9,412.8,157.7,410.6,157.7z
								 M410.6,150.7c-1.6,0-3,1.3-3,3c0,1.6,1.3,3,3,3s3-1.3,3-3C413.6,152.1,412.3,150.7,410.6,150.7z"/>
							<path class="st9" d="M394.3,157.7c-2.2,0-4-1.8-4-4c0-2.2,1.8-4,4-4c2.2,0,4,1.8,4,4C398.2,155.9,396.5,157.7,394.3,157.7z
								 M394.3,150.7c-1.6,0-3,1.3-3,3c0,1.6,1.3,3,3,3c1.6,0,3-1.3,3-3C397.2,152.1,395.9,150.7,394.3,150.7z"/>
							<path class="st9" d="M379,157.7c-2.2,0-4-1.8-4-4c0-2.2,1.8-4,4-4c2.2,0,4,1.8,4,4C383,155.9,381.2,157.7,379,157.7z
								 M379,150.7c-1.6,0-3,1.3-3,3c0,1.6,1.3,3,3,3c1.6,0,3-1.3,3-3C382,152.1,380.6,150.7,379,150.7z"/>
						</g>
					</g>
				</g>
			</g>
		</g>
	</g>
	<g>
		<path class="st9" d="M152.4,94.8H280c2.6,0,4.7,2.1,4.7,4.7v188c0,8.9-7.2,16.1-16.1,16.1H180c-18.9,0-34.2-15.3-34.2-34.2V101.4
			C145.8,97.8,148.7,94.8,152.4,94.8z"/>
		<path class="st19" d="M147.4,94.8h134.8c1.4,0,2.5,1.1,2.5,2.5v190.9c0,8.5-6.9,15.3-15.3,15.3h-92.4c-17.2,0-31.2-14-31.2-31.2
			V96.4C145.8,95.5,146.5,94.8,147.4,94.8z"/>
		<path class="st20" d="M159.2,94.8h123.5c1.1,0,2,0.9,2,2v192c0,8.2-6.6,14.8-14.8,14.8h-81.1c-16.9,0-30.7-13.7-30.7-30.7v-177
			C158.1,95.3,158.6,94.8,159.2,94.8z"/>
		<g>
			<path class="st21" d="M177.5,303.5L177.5,303.5l111.6,0c12.8,0,23.3-10.4,23.3-23.3v-8.8H199.5v8.8
				C199.5,292.7,189.7,302.8,177.5,303.5z"/>
		</g>
		<g class="st22">
			<path class="st17" d="M192.3,303.5L192.3,303.5l99.3,0c11.4,0,20.7-10.4,20.7-23.3v-8.8H211.9v8.8
				C211.9,292.7,203.2,302.8,192.3,303.5z"/>
		</g>
		<g>
			<path class="st9" d="M263.6,247.4h-80.2c-0.6,0-1-0.4-1-1c0-0.6,0.4-1,1-1h80.2c0.6,0,1,0.4,1,1
				C264.6,246.9,264.1,247.4,263.6,247.4z"/>
			<path class="st9" d="M265.3,213.6h-83.4c-0.6,0-1-0.4-1-1c0-0.6,0.4-1,1-1h83.4c0.6,0,1,0.4,1,1
				C266.3,213.1,265.8,213.6,265.3,213.6z"/>
			<path class="st9" d="M223.5,230.5h-42.6c-0.6,0-1-0.4-1-1c0-0.6,0.4-1,1-1h42.6c0.6,0,1,0.4,1,1C224.5,230,224,230.5,223.5,230.5
				z"/>
			<path class="st9" d="M220.3,230.5h-36.2c-0.6,0-1-0.4-1-1c0-0.6,0.4-1,1-1h36.2c0.6,0,1,0.4,1,1
				C221.3,230,220.8,230.5,220.3,230.5z"/>
			<path class="st9" d="M237.4,177.5h-54.9c-0.6,0-1-0.4-1-1c0-0.6,0.4-1,1-1h54.9c0.6,0,1,0.4,1,1
				C238.4,177,237.9,177.5,237.4,177.5z"/>
			<path class="st9" d="M262.8,177.5h-16.7c-0.6,0-1-0.4-1-1c0-0.6,0.4-1,1-1h16.7c0.6,0,1,0.4,1,1
				C263.8,177,263.4,177.5,262.8,177.5z"/>
			<path class="st9" d="M265.3,194.4h-59.4c-0.6,0-1-0.4-1-1s0.4-1,1-1h59.4c0.6,0,1,0.4,1,1S265.8,194.4,265.3,194.4z"/>
			<path class="st9" d="M200,194.4h-18.1c-0.6,0-1-0.4-1-1s0.4-1,1-1H200c0.6,0,1,0.4,1,1S200.5,194.4,200,194.4z"/>
			<path class="st9" d="M263.6,163.2h-80.2c-0.6,0-1-0.4-1-1c0-0.6,0.4-1,1-1h80.2c0.6,0,1,0.4,1,1
				C264.6,162.7,264.1,163.2,263.6,163.2z"/>
			<path class="st9" d="M263.6,129.4h-80.2c-0.6,0-1-0.4-1-1s0.4-1,1-1h80.2c0.6,0,1,0.4,1,1S264.1,129.4,263.6,129.4z"/>
			<path class="st9" d="M212.8,146.3h-30.4c-0.6,0-1-0.4-1-1c0-0.6,0.4-1,1-1h30.4c0.6,0,1,0.4,1,1
				C213.8,145.8,213.4,146.3,212.8,146.3z"/>
			<path class="st9" d="M263,146.3h-36.2c-0.6,0-1-0.4-1-1c0-0.6,0.4-1,1-1H263c0.6,0,1,0.4,1,1C264,145.8,263.5,146.3,263,146.3z"
				/>
		</g>
	</g>
	<g>
		<g>
			<g>
				
					<ellipse transform="matrix(0.7071 -0.7071 0.7071 0.7071 -58.9169 294.5515)" class="st23" cx="326.1" cy="218.4" rx="63.3" ry="63.3"/>
			</g>
			<g>
				<path class="st24" d="M276.5,222.9c-2.2,0-4-1.8-4-4c0-31.9,26-57.9,57.9-57.9c2.2,0,4,1.8,4,4c0,2.2-1.8,4-4,4
					c-27.5,0-49.9,22.4-49.9,49.9C280.5,221.2,278.7,222.9,276.5,222.9z"/>
			</g>
			<path class="st6" d="M326.1,283.7c-36,0-65.3-29.3-65.3-65.3c0-36,29.3-65.3,65.3-65.3c36,0,65.3,29.3,65.3,65.3
				C391.4,254.4,362.1,283.7,326.1,283.7z M326.1,157.1c-33.8,0-61.3,27.5-61.3,61.3s27.5,61.3,61.3,61.3s61.3-27.5,61.3-61.3
				S359.9,157.1,326.1,157.1z"/>
			<g>
				<g>
					<circle class="st25" cx="326.1" cy="218.4" r="63.3"/>
					<g>
						<path class="st17" d="M384.3,263.7c0.1-0.1,0.2-0.2,0.3-0.2c9.6-12.5,15.4-28.1,15.4-45.1c0-40.8-33.1-73.9-73.9-73.9
							s-73.9,33.1-73.9,73.9c0,40.8,33.1,73.9,73.9,73.9c16.9,0,32.5-5.7,44.9-15.3l8.5-8.5L384.3,263.7z M326.1,281.7
							c-35,0-63.3-28.3-63.3-63.3c0-35,28.3-63.3,63.3-63.3s63.3,28.3,63.3,63.3C389.4,253.3,361.1,281.7,326.1,281.7z"/>
						<path class="st17" d="M326.1,293.3c-41.3,0-74.9-33.6-74.9-74.9c0-41.3,33.6-74.9,74.9-74.9c41.3,0,74.9,33.6,74.9,74.9
							c0,16.7-5.4,32.5-15.6,45.7l-0.2,0.2c-0.1,0.1-0.2,0.1-0.2,0.2l-13.3,13.3C358.5,287.9,342.7,293.3,326.1,293.3z M326.1,145.5
							c-40.2,0-72.9,32.7-72.9,72.9s32.7,72.9,72.9,72.9c16.1,0,31.5-5.2,44.3-15l13.2-13.2c0.1-0.1,0.2-0.2,0.3-0.3
							c9.9-12.8,15.1-28.2,15.1-44.4C399,178.2,366.3,145.5,326.1,145.5z M326.1,282.7c-35.5,0-64.3-28.8-64.3-64.3
							s28.8-64.3,64.3-64.3s64.3,28.8,64.3,64.3S361.5,282.7,326.1,282.7z M326.1,156.1c-34.3,0-62.3,27.9-62.3,62.3
							c0,34.3,27.9,62.3,62.3,62.3c34.3,0,62.3-27.9,62.3-62.3C388.4,184,360.4,156.1,326.1,156.1z"/>
					</g>
					<path class="st26" d="M382.4,275.3l-2.9-2.9c-1.1-1.1-1.1-2.9,0-4L371,277l-0.1,0.1c-1.1,1.1-1.1,2.9,0,4l3.5,3.5
						C375.5,282.7,378.9,278.9,382.4,275.3z"/>
					<path class="st26" d="M379.6,268.4c-1.1,1.1-1.1,2.9,0,4l2.9,2.9c3.5-3.5,7.1-6.8,9.1-8.2l-3.3-3.3c-1-1-2.6-1.1-3.7-0.2
						c-0.1,0.1-0.2,0.2-0.3,0.2L379.6,268.4z"/>
					<path class="st27" d="M379.6,268.4c-1.1,1.1-1.1,2.9,0,4l2.9,2.9c3.5-3.5,7.1-6.8,9.1-8.2l-3.3-3.3c-1-1-2.6-1.1-3.7-0.2
						c-0.1,0.1-0.2,0.2-0.3,0.2L379.6,268.4z"/>
					<path class="st15" d="M445.2,319l-52-52.6c-0.2-0.2-0.8,0.1-1.6,0.6c-2,1.4-5.7,4.7-9.1,8.2c-3.6,3.6-6.9,7.4-8.1,9.3
						c-0.4,0.6-0.5,1.1-0.4,1.2l52,52.6c5.3,5.3,13.9,5.3,19.1,0C450.5,333,450.5,324.4,445.2,319z"/>
				</g>
				<g>
					<g>
						<path class="st12" d="M445.2,319l-52-52.6c-0.7-0.7-6.6,4.6-11.7,9.8c-4.3,4.5,58.4,67.4,63.7,62.1l0,0
							C450.5,333,450.5,324.4,445.2,319z"/>
					</g>
				</g>
			</g>
		</g>
		<g>
			<g>
				<path class="st9" d="M253.1,253.8h-171c-10,0-18.1-8.1-18.1-18.1v0c0-10,8.1-18.1,18.1-18.1h171c10,0,18.1,8.1,18.1,18.1v0
					C271.2,245.7,263.1,253.8,253.1,253.8z"/>
				<path class="st15" d="M253.1,253.8h-27.8l-0.1-36.2h27.9c10,0,18.1,8.1,18.1,18.1v0C271.2,245.7,263.1,253.8,253.1,253.8z"/>
				<g>
					<path class="st9" d="M246.1,242c-4.4,0-7.9-3.5-7.9-7.9s3.5-7.9,7.9-7.9c4.4,0,7.9,3.5,7.9,7.9c0,2.1-0.8,4.1-2.3,5.6
						C250.2,241.2,248.2,242,246.1,242z M246.1,228.2c-3.3,0-5.9,2.7-5.9,5.9c0,3.3,2.7,5.9,5.9,5.9c1.6,0,3.1-0.6,4.2-1.7
						c1.1-1.1,1.7-2.6,1.7-4.2C252,230.8,249.3,228.2,246.1,228.2z"/>
					<path class="st9" d="M257.2,246.3c-0.3,0-0.5-0.1-0.7-0.3l-6.3-6.3c-0.4-0.4-0.4-1,0-1.4c0.4-0.4,1-0.4,1.4,0l6.3,6.3
						c0.4,0.4,0.4,1,0,1.4C257.7,246.2,257.5,246.3,257.2,246.3z"/>
				</g>
			</g>
		</g>
	</g>
	<g>
		<path class="st28" d="M255.6,291.1h-85.1c-6,0-10.8-4.8-10.8-10.8v-7.1c0-6-4.8-10.8-10.8-10.8h-39.3c-6,0-10.8,4.8-10.8,10.8
			v27.9v32.1v52.3c0,5.6,4.5,10.1,10.1,10.1h146.8c5.6,0,10.1-4.5,10.1-10.1v-84.4C265.6,295.6,261.1,291.1,255.6,291.1z"/>
		<path class="st28" d="M246.2,291.1h-85.1c-6,0-10.8-4.8-10.8-10.8v-7.1c0-6-4.8-10.8-10.8-10.8h-39.3c-6,0-10.8,4.8-10.8,10.8
			v27.9v32.1v52.3c0,5.6,4.5,10.1,10.1,10.1h146.8c5.6,0,10.1-4.5,10.1-10.1v-84.4C256.3,295.6,251.7,291.1,246.2,291.1z"/>
		<path class="st29" d="M246.2,291.1h-85.1c-6,0-10.8-4.8-10.8-10.8v-7.1c0-6-4.8-10.8-10.8-10.8h-39.3c-6,0-10.8,4.8-10.8,10.8
			v27.9v32.1v52.3c0,5.6,4.5,10.1,10.1,10.1h146.8c5.6,0,10.1-4.5,10.1-10.1v-84.4C256.3,295.6,251.7,291.1,246.2,291.1z"/>
		<path class="st29" d="M224.6,291.1h-73.4c-5.1,0-9.3-4.8-9.3-10.8v-7.1c0-6-4.2-10.8-9.3-10.8H98.7c-5.2,0-9.3,4.8-9.3,10.8v27.9
			v32.1v52.3c0,5.6,3.9,10.1,8.7,10.1h126.6c4.8,0,8.7-4.5,8.7-10.1v-84.4C233.3,295.6,229.4,291.1,224.6,291.1z"/>
		<path class="st9" d="M97.2,302.4c-0.6,0-1-0.4-1-1v-24.5c0-3.8,3.1-6.9,6.9-6.9h29c0.6,0,1,0.4,1,1c0,0.6-0.4,1-1,1h-29
			c-2.7,0-4.9,2.2-4.9,4.9v24.5C98.2,301.9,97.8,302.4,97.2,302.4z"/>
	</g>
</g>
<g id="DESIGNED_BY_FREEPIK" class="st30">
	<g>
		<g class="st31">
			<g id="XMLID_197_">
				<g id="XMLID_216_">
					<path id="XMLID_224_" d="M260.1,463.6c-0.4,0.4-0.8,0.9-1.1,1.4l-0.5-0.2c-0.1-0.3-0.3-0.5-0.7-0.5c-0.3,0-0.6,0.3-0.5,0.7
						c0,0.3,0.3,0.6,0.7,0.5c0.1,0,0.1,0,0.2-0.1l0.4,0.2c-0.2,0.6-0.4,1.1-0.5,1.7l0.7,0.1c0.2-1.3,0.8-2.5,1.8-3.5L260.1,463.6z"
						/>
					<path id="XMLID_223_" d="M265.5,461.3c-0.2,0-0.3,0-0.5,0l-0.1-0.6c0.2-0.1,0.3-0.4,0.3-0.6c0-0.4-0.4-0.7-0.8-0.6
						c-0.4,0-0.7,0.4-0.6,0.8c0,0.3,0.2,0.5,0.4,0.6l0.1,0.6c-0.7,0.1-1.4,0.3-2.1,0.6l0.3,0.7c0.9-0.4,1.9-0.7,3-0.7
						c0.5,0,1,0.1,1.5,0.2l0.2-0.7C266.6,461.4,266.1,461.3,265.5,461.3z"/>
					<path id="XMLID_222_" d="M272.1,463.9c0.3,0,0.6-0.3,0.5-0.7c0-0.3-0.3-0.6-0.7-0.5c-0.3,0-0.5,0.3-0.5,0.6l-0.4,0.4
						c-0.4-0.4-0.9-0.8-1.4-1.1l-0.4,0.6c1.1,0.7,2,1.7,2.6,2.9l0.7-0.3c-0.2-0.6-0.6-1.1-0.9-1.5l0.4-0.3
						C272,463.9,272,463.9,272.1,463.9z"/>
					<path id="XMLID_221_" d="M265,471.5c-0.4,0-0.8,0-1.2,0c-0.9,0-1.7-0.1-2.5-0.2c-0.4-0.1-0.8-0.2-1.3-0.3
						c1,1.9,3.1,3.1,5.4,3.1c2.8,0,5.2-1.9,5.9-4.5c-0.7,0.4-1.5,0.8-2.4,1.1C267.8,471.2,266.4,471.4,265,471.5z"/>
					<path id="XMLID_217_" d="M265.5,462.8c-3.3,0-6.1,2.7-6.1,5.9c0,0.4,0,0.8,0.1,1.3c0.7,0.5,2.7,0.9,5.3,0.7
						c2.9-0.2,5.3-1,6.6-2.1c0-0.2,0-0.4,0-0.6C271.2,465,268.6,462.8,265.5,462.8z M263.4,469.3c-1,0-1.8-0.8-1.8-1.8
						s0.8-1.8,1.8-1.8c1,0,1.8,0.8,1.8,1.8S264.4,469.3,263.4,469.3z M268.1,468.4c-0.7,0-1.4-0.6-1.4-1.4s0.6-1.4,1.4-1.4
						c0.7,0,1.4,0.6,1.4,1.4S268.8,468.4,268.1,468.4z"/>
				</g>
				<path id="XMLID_214_" d="M281.5,464.7c-0.3-0.1-0.8-0.3-1.4-0.2c-0.5,0.1-0.8,0.3-0.8,1v0.9h2.2v1.7h-2.2v5.4h-1.9V468H276v-1.7
					h1.3v-0.9c0-1.7,0.9-2.8,2.6-2.8c0.6,0,1.2,0.1,1.6,0.3L281.5,464.7z"/>
				<path id="XMLID_212_" d="M286.2,468c-0.2,0-0.4,0-0.5,0c-0.9,0-1.5,0.5-1.5,1.6v3.9h-1.9v-7.1h1.9v0.8c0.4-0.7,1.1-1,2-1
					c0.4,0,0.8,0.1,1.1,0.3L286.2,468z"/>
				<path id="XMLID_209_" d="M293.8,469.9c0,0.2,0,0.5,0,0.6h-5.1c0.2,1,0.9,1.5,1.8,1.5c0.6,0,1.3-0.3,1.8-0.7l1.1,1.2
					c-0.8,0.7-1.8,1.1-3,1.1c-2.2,0-3.7-1.5-3.7-3.7c0-2.2,1.5-3.8,3.6-3.8C292.4,466.1,293.8,467.6,293.8,469.9z M288.7,469.2h3.2
					c-0.2-0.9-0.7-1.4-1.6-1.4C289.4,467.8,288.9,468.3,288.7,469.2z"/>
				<path id="XMLID_206_" d="M301.4,469.9c0,0.2,0,0.5,0,0.6h-5.1c0.2,1,0.9,1.5,1.8,1.5c0.6,0,1.3-0.3,1.8-0.7l1.1,1.2
					c-0.8,0.7-1.8,1.1-3,1.1c-2.2,0-3.7-1.5-3.7-3.7c0-2.2,1.5-3.8,3.6-3.8C300,466.1,301.4,467.6,301.4,469.9z M296.3,469.2h3.2
					c-0.2-0.9-0.7-1.4-1.6-1.4C297,467.8,296.5,468.3,296.3,469.2z"/>
				<path id="XMLID_203_" d="M309.7,469.9c0,2.1-1.5,3.8-3.5,3.8c-1,0-1.6-0.4-2.1-0.9v3.7h-1.9v-10.1h1.9v0.8c0.5-0.6,1.2-1,2.1-1
					C308.2,466.1,309.7,467.7,309.7,469.9z M304.1,469.9c0,1.1,0.7,2,1.8,2c1.1,0,1.8-0.9,1.8-2c0-1.1-0.7-2-1.8-2
					C304.8,467.9,304.1,468.8,304.1,469.9z"/>
				<path id="XMLID_200_" d="M312.8,464c0,0.7-0.5,1.2-1.2,1.2c-0.7,0-1.2-0.5-1.2-1.2c0-0.7,0.5-1.2,1.2-1.2
					C312.3,462.7,312.8,463.3,312.8,464z M312.6,473.5h-1.9v-7.1h1.9V473.5z"/>
				<path id="XMLID_198_" d="M315.8,468.9l2.7-2.5h2.4l-3.5,3.4l3.5,3.8h-2.4l-2.7-2.9v2.9h-1.9v-10.6h1.9V468.9z"/>
			</g>
			<g>
				<path d="M184.7,473.4v-1.1c-0.5,0.7-1.4,1.2-2.4,1.2c-1.8,0-3.1-1.4-3.1-3.7c0-2.2,1.3-3.7,3.1-3.7c0.9,0,1.8,0.5,2.4,1.2v-3.7
					h1.1v9.7H184.7z M184.7,471.5v-3.2c-0.4-0.6-1.2-1.1-2.1-1.1c-1.4,0-2.3,1.2-2.3,2.7c0,1.6,0.8,2.7,2.3,2.7
					C183.4,472.6,184.3,472.1,184.7,471.5z"/>
				<path d="M187.2,469.9c0-2,1.5-3.7,3.5-3.7c2.1,0,3.4,1.7,3.4,3.8v0.3h-5.7c0.1,1.3,1,2.4,2.5,2.4c0.8,0,1.6-0.3,2.2-0.9l0.5,0.7
					c-0.7,0.7-1.6,1.1-2.8,1.1C188.7,473.6,187.2,472.1,187.2,469.9z M190.6,467.1c-1.5,0-2.2,1.3-2.3,2.3h4.6
					C192.9,468.4,192.2,467.1,190.6,467.1z"/>
				<path d="M194.8,472.5l0.6-0.8c0.5,0.5,1.4,1,2.3,1c1.1,0,1.7-0.5,1.7-1.2c0-1.7-4.4-0.7-4.4-3.3c0-1.1,0.9-2,2.6-2
					c1.2,0,2,0.5,2.6,1l-0.5,0.8c-0.4-0.5-1.2-0.9-2.1-0.9c-1,0-1.6,0.5-1.6,1.1c0,1.5,4.4,0.5,4.4,3.3c0,1.2-0.9,2.1-2.8,2.1
					C196.5,473.6,195.5,473.2,194.8,472.5z"/>
				<path d="M201.7,464.6c0-0.4,0.3-0.7,0.7-0.7c0.4,0,0.7,0.3,0.7,0.7c0,0.4-0.3,0.7-0.7,0.7C202,465.3,201.7,465,201.7,464.6z
					 M201.9,473.4v-7h1.1v7H201.9z"/>
				<path d="M204.8,475.2l0.6-0.8c0.6,0.7,1.3,1,2.3,1c1.2,0,2.3-0.6,2.3-2.1v-1c-0.5,0.7-1.4,1.3-2.4,1.3c-1.8,0-3.1-1.4-3.1-3.6
					c0-2.3,1.3-3.7,3.1-3.7c0.9,0,1.8,0.5,2.4,1.2v-1.1h1.1v6.8c0,2.3-1.6,3.1-3.4,3.1C206.4,476.3,205.6,476,204.8,475.2z
					 M209.9,471.4v-3.1c-0.4-0.6-1.2-1.1-2.1-1.1c-1.4,0-2.3,1.1-2.3,2.7c0,1.5,0.8,2.7,2.3,2.7C208.6,472.5,209.5,472,209.9,471.4z
					"/>
				<path d="M217.5,473.4v-4.6c0-1.2-0.6-1.6-1.6-1.6c-0.9,0-1.7,0.5-2.1,1.1v5.1h-1.1v-7h1.1v1c0.5-0.6,1.5-1.2,2.5-1.2
					c1.5,0,2.2,0.7,2.2,2.3v4.9H217.5z"/>
				<path d="M220.1,469.9c0-2,1.5-3.7,3.5-3.7c2.1,0,3.4,1.7,3.4,3.8v0.3h-5.7c0.1,1.3,1,2.4,2.5,2.4c0.8,0,1.6-0.3,2.2-0.9l0.5,0.7
					c-0.7,0.7-1.6,1.1-2.8,1.1C221.6,473.6,220.1,472.1,220.1,469.9z M223.5,467.1c-1.5,0-2.2,1.3-2.3,2.3h4.6
					C225.8,468.4,225.1,467.1,223.5,467.1z"/>
				<path d="M233.4,473.4v-1.1c-0.5,0.7-1.4,1.2-2.4,1.2c-1.8,0-3.1-1.4-3.1-3.7c0-2.2,1.3-3.7,3.1-3.7c0.9,0,1.8,0.5,2.4,1.2v-3.7
					h1.1v9.7H233.4z M233.4,471.5v-3.2c-0.4-0.6-1.2-1.1-2.1-1.1c-1.4,0-2.3,1.2-2.3,2.7c0,1.6,0.8,2.7,2.3,2.7
					C232.2,472.6,233,472.1,233.4,471.5z"/>
				<path d="M239.7,473.4v-9.7h1.1v3.7c0.6-0.8,1.4-1.2,2.4-1.2c1.8,0,3.1,1.5,3.1,3.7c0,2.3-1.3,3.7-3.1,3.7c-1,0-1.9-0.5-2.4-1.2
					v1.1H239.7z M242.9,472.6c1.4,0,2.3-1.2,2.3-2.7c0-1.6-0.8-2.7-2.3-2.7c-0.9,0-1.7,0.5-2.1,1.1v3.2
					C241.2,472.1,242.1,472.6,242.9,472.6z"/>
				<path d="M247.5,475.2c0.2,0.1,0.4,0.1,0.6,0.1c0.5,0,0.8-0.2,1.1-0.7l0.5-1.1l-2.9-7.1h1.2l2.3,5.8l2.3-5.8h1.2l-3.5,8.5
					c-0.4,1-1.1,1.4-2.1,1.4c-0.2,0-0.6,0-0.8-0.1L247.5,475.2z"/>
			</g>
		</g>
	</g>
</g>
</svg>
